<?xml version="1.0" encoding="UTF-8"?>
<svg version="1.1" xmlns="http://www.w3.org/2000/svg" width="561" height="445">
<path d="M0 0 C0.67746277 -0.00385712 1.35492554 -0.00771423 2.05291748 -0.01168823 C14.78970528 -0.04737578 27.08066527 1.25369122 39.375 4.625 C40.17655518 4.8408374 40.97811035 5.0566748 41.80395508 5.27905273 C51.55346547 7.9743965 60.89917739 11.50377104 69.8125 16.3125 C71.14087891 17.00859375 71.14087891 17.00859375 72.49609375 17.71875 C76.765731 19.98971038 80.90521249 22.26681505 84.8125 25.125 C87.65130634 27.42733732 87.65130634 27.42733732 90.8125 28.3125 C91.933655 29.433655 93.05016968 30.55990133 94.140625 31.7109375 C97.13966381 34.58384851 100.50297975 37.02508527 103.80078125 39.54296875 C104.46464844 40.12691406 105.12851562 40.71085937 105.8125 41.3125 C105.8125 41.9725 105.8125 42.6325 105.8125 43.3125 C106.4725 43.3125 107.1325 43.3125 107.8125 43.3125 C107.8125 43.9725 107.8125 44.6325 107.8125 45.3125 C108.4725 45.3125 109.1325 45.3125 109.8125 45.3125 C109.8125 45.9725 109.8125 46.6325 109.8125 47.3125 C110.4725 47.3125 111.1325 47.3125 111.8125 47.3125 C116.8125 52.78869048 116.8125 52.78869048 116.8125 55.3125 C117.4725 55.3125 118.1325 55.3125 118.8125 55.3125 C121.8125 58.77403846 121.8125 58.77403846 121.8125 61.3125 C122.4725 61.3125 123.1325 61.3125 123.8125 61.3125 C124.1425 62.9625 124.4725 64.6125 124.8125 66.3125 C125.4725 66.3125 126.1325 66.3125 126.8125 66.3125 C126.8125 66.9725 126.8125 67.6325 126.8125 68.3125 C129.14774782 66.05509377 130.99955073 64.0319239 132.8125 61.3125 C133.4725 61.3125 134.1325 61.3125 134.8125 61.3125 C135.1528125 60.5390625 135.1528125 60.5390625 135.5 59.75 C138.51120028 54.15777092 142.28849162 49.75608157 146.8125 45.3125 C147.61429687 44.4875 148.41609375 43.6625 149.2421875 42.8125 C153.85724884 38.09422642 158.36414406 34.02201894 163.8125 30.3125 C164.1425 29.6525 164.4725 28.9925 164.8125 28.3125 C165.8025 28.3125 166.7925 28.3125 167.8125 28.3125 C167.8125 27.6525 167.8125 26.9925 167.8125 26.3125 C175.5735284 20.75460225 184.19793348 16.37017843 192.8125 12.3125 C193.946875 11.77625 195.08125 11.24 196.25 10.6875 C216.32339292 2.93987466 236.37474209 -0.13995519 257.8125 0.3125 C259.02292969 0.32925781 260.23335938 0.34601562 261.48046875 0.36328125 C283.52845858 1.16294927 305.41428873 6.93671258 324.8125 17.3125 C325.81796875 17.84359375 326.8234375 18.3746875 327.859375 18.921875 C340.51278877 25.70298624 340.51278877 25.70298624 343.8125 28.3125 C343.8125 28.9725 343.8125 29.6325 343.8125 30.3125 C344.53308594 30.55226563 345.25367188 30.79203125 345.99609375 31.0390625 C349.2217027 32.49752092 351.28776832 34.28021488 353.875 36.6875 C355.12990234 37.84378906 355.12990234 37.84378906 356.41015625 39.0234375 C357.59931641 40.15652344 357.59931641 40.15652344 358.8125 41.3125 C359.95525391 42.38371094 359.95525391 42.38371094 361.12109375 43.4765625 C362.8125 45.3125 362.8125 45.3125 362.8125 47.3125 C363.6478125 47.6528125 363.6478125 47.6528125 364.5 48 C369.56033686 50.87208309 373.27624432 55.76588555 376.8125 60.3125 C376.8125 60.9725 376.8125 61.6325 376.8125 62.3125 C377.4725 62.3125 378.1325 62.3125 378.8125 62.3125 C380.34553949 64.59850585 381.75123103 66.87041576 383.125 69.25 C383.52944336 69.94077637 383.93388672 70.63155273 384.35058594 71.34326172 C385.1527291 72.71721376 385.95147336 74.09315655 386.74658203 75.47119141 C387.59724834 76.94066583 388.46560512 78.39989496 389.33984375 79.85546875 C408.98715 113.31238323 410.75801092 155.35347737 401.28515625 192.1015625 C397.42404865 206.22501896 391.33709501 218.8095299 383.8125 231.3125 C383.28011719 232.22773438 382.74773438 233.14296875 382.19921875 234.0859375 C381.13805466 235.87019571 379.98859618 237.60181465 378.8125 239.3125 C378.1525 239.3125 377.4925 239.3125 376.8125 239.3125 C376.4825 240.6325 376.1525 241.9525 375.8125 243.3125 C375.1525 243.3125 374.4925 243.3125 373.8125 243.3125 C373.8125 244.3025 373.8125 245.2925 373.8125 246.3125 C373.1525 246.3125 372.4925 246.3125 371.8125 246.3125 C371.57144531 246.87066406 371.33039062 247.42882812 371.08203125 248.00390625 C369.54363421 250.80142209 367.65688036 252.89736915 365.5 255.25 C364.74074219 256.08402344 363.98148438 256.91804688 363.19921875 257.77734375 C358.64805749 262.61155595 353.99562907 266.88785211 348.75 270.9375 C348.13833984 271.41445313 347.52667969 271.89140625 346.89648438 272.3828125 C345.72247989 273.2966322 344.54601239 274.20729948 343.36669922 275.11425781 C342.07000952 276.11396768 340.78539637 277.12931677 339.50390625 278.1484375 C337.8125 279.3125 337.8125 279.3125 335.8125 279.3125 C335.8125 279.9725 335.8125 280.6325 335.8125 281.3125 C334.07701831 282.75776736 332.27274037 284.1212222 330.4375 285.4375 C329.43976563 286.16195313 328.44203125 286.88640625 327.4140625 287.6328125 C324.8125 289.3125 324.8125 289.3125 322.8125 289.3125 C322.4825 290.3025 322.1525 291.2925 321.8125 292.3125 C319.75 293 319.75 293 317.8125 293.3125 C317.8125 293.9725 317.8125 294.6325 317.8125 295.3125 C316.3515625 296.6015625 316.3515625 296.6015625 314.4375 297.9375 C313.81101562 298.38351562 313.18453125 298.82953125 312.5390625 299.2890625 C310.8125 300.3125 310.8125 300.3125 308.8125 300.3125 C308.8125 300.9725 308.8125 301.6325 308.8125 302.3125 C307.23884453 303.58698143 305.60012868 304.78148948 303.9375 305.9375 C299.32807326 309.20643019 294.89131164 312.60629026 290.5 316.16015625 C287.34272366 318.68873076 284.14567427 321.16153229 280.9375 323.625 C280.38980957 324.04571777 279.84211914 324.46643555 279.27783203 324.89990234 C277.79118004 326.0397759 276.301928 327.17625614 274.8125 328.3125 C274.06742187 328.90417969 273.32234375 329.49585938 272.5546875 330.10546875 C270.8125 331.3125 270.8125 331.3125 268.8125 331.3125 C268.8125 331.9725 268.8125 332.6325 268.8125 333.3125 C267.8225 333.3125 266.8325 333.3125 265.8125 333.3125 C265.4825 334.3025 265.1525 335.2925 264.8125 336.3125 C262.25 337.5 262.25 337.5 259.8125 338.3125 C259.8125 338.9725 259.8125 339.6325 259.8125 340.3125 C254.40073529 344.3125 254.40073529 344.3125 251.8125 344.3125 C251.8125 344.9725 251.8125 345.6325 251.8125 346.3125 C250.13729602 347.71303089 248.39326908 349.03147712 246.625 350.3125 C245.52542012 351.11764143 244.42648479 351.92366369 243.328125 352.73046875 C242.46477539 353.36154541 242.46477539 353.36154541 241.58398438 354.00537109 C238.64934812 356.17075733 235.76224915 358.39703739 232.875 360.625 C231.83472656 361.42550781 230.79445313 362.22601563 229.72265625 363.05078125 C227.80971249 364.5374852 225.92043919 366.05525134 224.05859375 367.60546875 C221.8125 369.3125 221.8125 369.3125 219.8125 369.3125 C219.8125 369.9725 219.8125 370.6325 219.8125 371.3125 C218.8225 371.3125 217.8325 371.3125 216.8125 371.3125 C216.4825 372.3025 216.1525 373.2925 215.8125 374.3125 C214.03639031 375.8002802 212.19076794 377.20597315 210.3125 378.5625 C205.63466852 381.96742831 201.05607382 385.46192115 196.5546875 389.09765625 C194.8125 390.3125 194.8125 390.3125 192.8125 390.3125 C192.8125 390.9725 192.8125 391.6325 192.8125 392.3125 C191.46728516 393.54931641 191.46728516 393.54931641 189.6015625 394.9140625 C188.93382812 395.40390625 188.26609375 395.89375 187.578125 396.3984375 C186.87171875 396.90632813 186.1653125 397.41421875 185.4375 397.9375 C184.38949219 398.7109375 184.38949219 398.7109375 183.3203125 399.5 C178.07560351 403.3125 178.07560351 403.3125 175.8125 403.3125 C175.4825 404.3025 175.1525 405.2925 174.8125 406.3125 C173.8225 406.6425 172.8325 406.9725 171.8125 407.3125 C171.4825 407.9725 171.1525 408.6325 170.8125 409.3125 C169.8225 409.3125 168.8325 409.3125 167.8125 409.3125 C167.8125 409.9725 167.8125 410.6325 167.8125 411.3125 C166.06731026 412.673748 164.31074983 414.02172089 162.515625 415.31640625 C160.38293666 416.89126714 158.30420677 418.49767539 156.234375 420.15234375 C155.60934082 420.6512915 154.98430664 421.15023926 154.34033203 421.66430664 C153.07828104 422.67456275 151.81880539 423.68804504 150.56201172 424.70483398 C146.03325275 428.3125 146.03325275 428.3125 143.8125 428.3125 C143.8125 428.9725 143.8125 429.6325 143.8125 430.3125 C142.09416524 431.71284072 140.31120901 433.03455227 138.5 434.3125 C137.51386719 435.01375 136.52773438 435.715 135.51171875 436.4375 C129.92635289 440.31734893 129.92635289 440.31734893 127.51953125 440.21484375 C124.02375839 439.04958613 121.37548797 437.10760852 118.5 434.875 C117.95021484 434.46701172 117.40042969 434.05902344 116.83398438 433.63867188 C115.44997812 432.58476401 114.12543431 431.45372679 112.8125 430.3125 C112.8125 429.6525 112.8125 428.9925 112.8125 428.3125 C111.4925 427.9825 110.1725 427.6525 108.8125 427.3125 C108.8125 426.6525 108.8125 425.9925 108.8125 425.3125 C108.29171875 425.0753125 107.7709375 424.838125 107.234375 424.59375 C104.02004883 422.89326777 101.05385157 420.87028691 98.0625 418.8125 C97.46050781 418.40902344 96.85851562 418.00554687 96.23828125 417.58984375 C94.72527798 416.55029729 93.26377837 415.43661157 91.8125 414.3125 C91.8125 413.6525 91.8125 412.9925 91.8125 412.3125 C91.19375 412.003125 90.575 411.69375 89.9375 411.375 C88.5625 410.6875 87.1875 410 85.8125 409.3125 C85.8125 408.6525 85.8125 407.9925 85.8125 407.3125 C84.1625 406.6525 82.5125 405.9925 80.8125 405.3125 C80.8125 404.6525 80.8125 403.9925 80.8125 403.3125 C79.8225 403.3125 78.8325 403.3125 77.8125 403.3125 C77.8125 402.6525 77.8125 401.9925 77.8125 401.3125 C77.26078125 401.0546875 76.7090625 400.796875 76.140625 400.53125 C73.46935825 399.13286875 71.04398091 397.52486695 68.5625 395.8125 C67.67046875 395.2040625 66.7784375 394.595625 65.859375 393.96875 C65.18390625 393.4221875 64.5084375 392.875625 63.8125 392.3125 C63.8125 391.6525 63.8125 390.9925 63.8125 390.3125 C62.74515625 389.95478516 62.74515625 389.95478516 61.65625 389.58984375 C58.35846526 388.10855857 56.05683332 386.22233005 53.3125 383.875 C50.58980331 381.55382459 48.06086083 379.45749087 44.96875 377.65234375 C43.90140625 376.98912109 43.90140625 376.98912109 42.8125 376.3125 C42.8125 375.6525 42.8125 374.9925 42.8125 374.3125 C41.8225 373.9825 40.8325 373.6525 39.8125 373.3125 C39.8125 372.6525 39.8125 371.9925 39.8125 371.3125 C39.22984375 371.19777344 38.6471875 371.08304687 38.046875 370.96484375 C35.64726865 370.26425938 34.08389067 369.33057405 32.0625 367.875 C31.14210937 367.22724609 31.14210937 367.22724609 30.203125 366.56640625 C29.74421875 366.15261719 29.2853125 365.73882812 28.8125 365.3125 C28.8125 364.6525 28.8125 363.9925 28.8125 363.3125 C28.08675781 363.0546875 27.36101562 362.796875 26.61328125 362.53125 C23.69202333 361.26007501 21.50377351 359.77233598 19 357.8125 C18.20980469 357.2040625 17.41960937 356.595625 16.60546875 355.96875 C16.01378906 355.4221875 15.42210937 354.875625 14.8125 354.3125 C14.8125 353.6525 14.8125 352.9925 14.8125 352.3125 C13.73355469 351.94125 13.73355469 351.94125 12.6328125 351.5625 C9.51645999 350.18129113 7.30393287 348.48886006 4.6875 346.3125 C2.10223622 344.17513907 -0.39388341 342.17491106 -3.1875 340.3125 C-3.1875 339.6525 -3.1875 338.9925 -3.1875 338.3125 C-4.1775 338.3125 -5.1675 338.3125 -6.1875 338.3125 C-6.1875 337.6525 -6.1875 336.9925 -6.1875 336.3125 C-6.73921875 336.0546875 -7.2909375 335.796875 -7.859375 335.53125 C-10.53064175 334.13286875 -12.95601909 332.52486695 -15.4375 330.8125 C-16.32953125 330.2040625 -17.2215625 329.595625 -18.140625 328.96875 C-18.81609375 328.4221875 -19.4915625 327.875625 -20.1875 327.3125 C-20.1875 326.6525 -20.1875 325.9925 -20.1875 325.3125 C-21.05375 324.879375 -21.05375 324.879375 -21.9375 324.4375 C-24.02083333 323.39583333 -26.10416667 322.35416667 -28.1875 321.3125 C-28.1875 320.6525 -28.1875 319.9925 -28.1875 319.3125 C-29.8375 318.6525 -31.4875 317.9925 -33.1875 317.3125 C-33.1875 316.6525 -33.1875 315.9925 -33.1875 315.3125 C-34.5075 314.9825 -35.8275 314.6525 -37.1875 314.3125 C-37.1875 313.6525 -37.1875 312.9925 -37.1875 312.3125 C-37.72890625 312.065 -38.2703125 311.8175 -38.828125 311.5625 C-41.7157849 310.03261396 -44.28526018 308.22099003 -46.9375 306.3125 C-47.92234375 305.61125 -48.9071875 304.91 -49.921875 304.1875 C-50.66953125 303.56875 -51.4171875 302.95 -52.1875 302.3125 C-52.1875 301.6525 -52.1875 300.9925 -52.1875 300.3125 C-52.86039062 300.10238281 -53.53328125 299.89226562 -54.2265625 299.67578125 C-58.18746763 297.85209274 -61.22257743 295.2732088 -64.5625 292.5 C-65.83964244 291.44999164 -67.11828122 290.40180057 -68.3984375 289.35546875 C-69.02073242 288.8454834 -69.64302734 288.33549805 -70.28417969 287.81005859 C-72.19508279 286.30653375 -74.15915917 284.92555769 -76.1640625 283.55078125 C-77.66066406 282.44283203 -77.66066406 282.44283203 -79.1875 281.3125 C-79.1875 280.6525 -79.1875 279.9925 -79.1875 279.3125 C-79.950625 279.02375 -80.71375 278.735 -81.5 278.4375 C-84.1875 277.3125 -84.1875 277.3125 -87.1875 275.3125 C-87.1875 274.6525 -87.1875 273.9925 -87.1875 273.3125 C-87.91324219 273.0546875 -88.63898438 272.796875 -89.38671875 272.53125 C-92.30797667 271.26007501 -94.49622649 269.77233598 -97 267.8125 C-97.79019531 267.2040625 -98.58039063 266.595625 -99.39453125 265.96875 C-100.28205078 265.14890625 -100.28205078 265.14890625 -101.1875 264.3125 C-101.1875 263.6525 -101.1875 262.9925 -101.1875 262.3125 C-101.826875 262.044375 -102.46625 261.77625 -103.125 261.5 C-105.1875 260.3125 -105.1875 260.3125 -106.1875 257.3125 C-107.1775 256.9825 -108.1675 256.6525 -109.1875 256.3125 C-109.1875 255.6525 -109.1875 254.9925 -109.1875 254.3125 C-109.8475 254.3125 -110.5075 254.3125 -111.1875 254.3125 C-112.9140625 252.4140625 -112.9140625 252.4140625 -114.8125 249.9375 C-115.75996094 248.71933594 -115.75996094 248.71933594 -116.7265625 247.4765625 C-118.1875 245.3125 -118.1875 245.3125 -118.1875 243.3125 C-118.8475 243.3125 -119.5075 243.3125 -120.1875 243.3125 C-131.24348583 230.34412743 -139.13987487 213.10220581 -144.375 197.0625 C-144.61299316 196.34940674 -144.85098633 195.63631348 -145.09619141 194.90161133 C-149.35305266 181.27935701 -150.70787958 167.61045584 -150.63354492 153.41113281 C-150.6250263 150.9451139 -150.65396553 148.48141831 -150.68554688 146.015625 C-150.76790791 127.23416342 -146.91837013 107.07864897 -138.1875 90.3125 C-137.50221955 88.65339996 -136.82858137 86.98917436 -136.1875 85.3125 C-135.5275 85.3125 -134.8675 85.3125 -134.1875 85.3125 C-134.08566406 84.60738281 -133.98382813 83.90226562 -133.87890625 83.17578125 C-133.08835188 79.90190355 -131.78226266 77.42665533 -130.125 74.5 C-129.57714844 73.52417969 -129.02929688 72.54835938 -128.46484375 71.54296875 C-128.04332031 70.80691406 -127.62179688 70.07085937 -127.1875 69.3125 C-126.5275 69.3125 -125.8675 69.3125 -125.1875 69.3125 C-124.878125 68.52875 -124.56875 67.745 -124.25 66.9375 C-123.1875 64.3125 -123.1875 64.3125 -122.1875 62.3125 C-121.5275 62.3125 -120.8675 62.3125 -120.1875 62.3125 C-119.77951172 61.44431641 -119.77951172 61.44431641 -119.36328125 60.55859375 C-118.1909712 58.31913102 -116.8910543 56.39507235 -115.375 54.375 C-114.65376953 53.40240234 -114.65376953 53.40240234 -113.91796875 52.41015625 C-111.82589319 49.87416399 -109.52757033 47.62090021 -107.1875 45.3125 C-106.42953125 44.49652344 -105.6715625 43.68054687 -104.890625 42.83984375 C-93.49698905 30.81121217 -80.03128479 22.08783945 -65.03295898 15.18530273 C-63.11762615 14.27945343 -61.25137511 13.30010246 -59.375 12.31640625 C-40.81923569 3.00824453 -20.46517714 0.07245505 0 0 Z M203.8125 36.3125 C202.14416742 37.01737052 200.47504042 37.72045757 198.80078125 38.41113281 C195.27592218 40.00909201 192.06984663 42.10953749 188.8125 44.1875 C188.13960938 44.60902344 187.46671875 45.03054687 186.7734375 45.46484375 C182.33858454 48.2644517 177.97287835 51.11637601 173.8125 54.3125 C173.8125 54.9725 173.8125 55.6325 173.8125 56.3125 C173.23371094 56.56257813 172.65492188 56.81265625 172.05859375 57.0703125 C169.51379381 58.47769751 167.87801169 60.08532931 165.875 62.1875 C163.78270603 64.37546546 161.80769412 66.31606019 159.37109375 68.12109375 C156.14605873 70.88329932 154.09341123 73.94813105 151.8125 77.5 C151.15459473 78.50800659 151.15459473 78.50800659 150.48339844 79.53637695 C147.36797683 84.34927419 144.43117554 89.20966993 141.8125 94.3125 C141.33296875 95.22128906 140.8534375 96.13007812 140.359375 97.06640625 C136.16751067 105.18549701 132.89341747 113.54195579 129.796875 122.12890625 C128.8125 124.3125 128.8125 124.3125 126.8125 125.3125 C126.4825 124.178125 126.1525 123.04375 125.8125 121.875 C121.07673327 107.82117374 113.55072373 94.89555207 105.95458984 82.23242188 C104.97946184 80.59317292 104.04229454 78.93144193 103.11328125 77.265625 C102.46939453 76.29882812 102.46939453 76.29882812 101.8125 75.3125 C101.1525 75.3125 100.4925 75.3125 99.8125 75.3125 C99.8125 74.3225 99.8125 73.3325 99.8125 72.3125 C98.19929125 70.54317427 96.55779968 68.9459727 94.8125 67.3125 C93.22344482 65.75581946 91.64047652 64.19290969 90.0625 62.625 C88.89460938 61.47451172 88.89460938 61.47451172 87.703125 60.30078125 C85.8125 58.3125 85.8125 58.3125 84.8125 56.3125 C84.1525 56.3125 83.4925 56.3125 82.8125 56.3125 C82.8125 55.6525 82.8125 54.9925 82.8125 54.3125 C80.73960438 52.67429148 78.67969935 51.16997352 76.5 49.6875 C75.60764648 49.05714844 75.60764648 49.05714844 74.69726562 48.4140625 C71.09449183 45.88852251 71.09449183 45.88852251 66.8125 45.3125 C66.8125 44.6525 66.8125 43.9925 66.8125 43.3125 C39.66175781 27.47910125 4.34387556 21.10538029 -26.5390625 28.2734375 C-42.20738619 32.7357224 -56.21490636 38.39553042 -70.0625 47.125 C-70.67641602 47.51018799 -71.29033203 47.89537598 -71.92285156 48.29223633 C-73.38298601 49.2421653 -74.79140545 50.2707334 -76.1875 51.3125 C-76.1875 51.9725 -76.1875 52.6325 -76.1875 53.3125 C-77.5075 53.6425 -78.8275 53.9725 -80.1875 54.3125 C-80.1875 54.9725 -80.1875 55.6325 -80.1875 56.3125 C-81.04601562 56.69921875 -81.04601562 56.69921875 -81.921875 57.09375 C-84.39878995 58.42615942 -86.3216166 59.96306118 -88.4375 61.8125 C-89.14390625 62.4209375 -89.8503125 63.029375 -90.578125 63.65625 C-92.41979504 65.16666368 -92.41979504 65.16666368 -92.1875 67.3125 C-93.6725 67.8075 -93.6725 67.8075 -95.1875 68.3125 C-96.40619929 70.81697516 -96.40619929 70.81697516 -97.1875 73.3125 C-97.8475 73.3125 -98.5075 73.3125 -99.1875 73.3125 C-100.57518414 75.02447199 -100.57518414 75.02447199 -101.9375 77.25 C-104.56908307 81.35293617 -107.293616 85.37201982 -110.0859375 89.3671875 C-111.43387401 91.37499447 -111.43387401 91.37499447 -111.1875 94.3125 C-111.8475 94.3125 -112.5075 94.3125 -113.1875 94.3125 C-127.00202899 125.73489177 -130.70170629 161.74912519 -118.1875 194.3125 C-117.75953125 195.46105469 -117.3315625 196.60960937 -116.890625 197.79296875 C-114.31348978 204.67270169 -114.31348978 204.67270169 -111.1875 211.3125 C-110.5275 211.3125 -109.8675 211.3125 -109.1875 211.3125 C-108.94 212.158125 -108.6925 213.00375 -108.4375 213.875 C-107.04776373 217.69677474 -105.27629162 220.83118063 -103.1875 224.3125 C-102.5275 224.3125 -101.8675 224.3125 -101.1875 224.3125 C-100.754375 225.4571875 -100.754375 225.4571875 -100.3125 226.625 C-99.22480987 229.46279308 -99.22480987 229.46279308 -97.1875 232.3125 C-96.5275 232.3125 -95.8675 232.3125 -95.1875 232.3125 C-95.1875 232.9725 -95.1875 233.6325 -95.1875 234.3125 C-93.85416667 235.97916667 -93.85416667 235.97916667 -92.1875 237.3125 C-91.5275 237.3125 -90.8675 237.3125 -90.1875 237.3125 C-89.8575 238.3025 -89.5275 239.2925 -89.1875 240.3125 C-88.5275 240.3125 -87.8675 240.3125 -87.1875 240.3125 C-86.8575 241.3025 -86.5275 242.2925 -86.1875 243.3125 C-85.5275 243.3125 -84.8675 243.3125 -84.1875 243.3125 C-84.1875 243.9725 -84.1875 244.6325 -84.1875 245.3125 C-82.68326101 246.71123124 -81.10484851 248.03045269 -79.5 249.3125 C-78.50613281 250.1065625 -77.51226562 250.900625 -76.48828125 251.71875 C-75.38851693 252.58396428 -74.28823787 253.44852462 -73.1875 254.3125 C-72.6104834 254.76882813 -72.0334668 255.22515625 -71.43896484 255.6953125 C-69.69318238 257.07384048 -67.94171057 258.44471774 -66.1875 259.8125 C-65.63618408 260.245625 -65.08486816 260.67875 -64.5168457 261.125 C-62.06997724 263.01320024 -60.14599991 264.32633336 -57.1875 265.3125 C-57.1875 265.9725 -57.1875 266.6325 -57.1875 267.3125 C-56.1975 267.6425 -55.2075 267.9725 -54.1875 268.3125 C-53.8575 268.9725 -53.5275 269.6325 -53.1875 270.3125 C-52.1975 270.3125 -51.2075 270.3125 -50.1875 270.3125 C-50.1875 270.9725 -50.1875 271.6325 -50.1875 272.3125 C-48.47252228 273.90076222 -48.47252228 273.90076222 -46.3125 275.4375 C-45.59320313 275.97632813 -44.87390625 276.51515625 -44.1328125 277.0703125 C-42.29123994 278.49189632 -42.29123994 278.49189632 -40.1875 278.3125 C-40.1875 278.9725 -40.1875 279.6325 -40.1875 280.3125 C-36.55426311 283.27485695 -36.55426311 283.27485695 -32.1875 284.3125 C-32.1875 284.9725 -32.1875 285.6325 -32.1875 286.3125 C-30.30158745 287.76336944 -30.30158745 287.76336944 -27.9375 289.1875 C-24.57266647 291.28777191 -21.98244691 293.51216783 -19.1875 296.3125 C-16.61187294 298.18784136 -13.97795765 299.95228096 -11.33203125 301.7265625 C-9.1875 303.3125 -9.1875 303.3125 -8.1875 305.3125 C-7.1975 305.3125 -6.2075 305.3125 -5.1875 305.3125 C-5.1875 305.9725 -5.1875 306.6325 -5.1875 307.3125 C-3.8675 307.6425 -2.5475 307.9725 -1.1875 308.3125 C-1.1875 308.9725 -1.1875 309.6325 -1.1875 310.3125 C0.16219129 311.59597995 0.16219129 311.59597995 1.9609375 312.8515625 C2.63237793 313.34624023 3.30381836 313.84091797 3.99560547 314.35058594 C5.08059326 315.1361084 5.08059326 315.1361084 6.1875 315.9375 C7.65729651 317.01680548 9.12604686 318.09753706 10.59375 319.1796875 C11.67462891 319.97584473 11.67462891 319.97584473 12.77734375 320.78808594 C16.2751423 323.40807804 19.63603033 326.18568122 22.9921875 328.984375 C24.70622509 330.50896931 24.70622509 330.50896931 26.8125 330.3125 C26.8125 330.9725 26.8125 331.6325 26.8125 332.3125 C27.8025 332.3125 28.7925 332.3125 29.8125 332.3125 C30.1425 333.3025 30.4725 334.2925 30.8125 335.3125 C32.82758358 336.04573796 32.82758358 336.04573796 34.8125 336.3125 C34.8125 336.9725 34.8125 337.6325 34.8125 338.3125 C35.534375 338.745625 36.25625 339.17875 37 339.625 C40.1181911 341.49591466 42.24845833 343.74845833 44.8125 346.3125 C47.7068358 348.21852601 50.69188363 349.809981 53.8125 351.3125 C53.8125 351.9725 53.8125 352.6325 53.8125 353.3125 C57.44573689 356.27485695 57.44573689 356.27485695 61.8125 357.3125 C61.8125 357.9725 61.8125 358.6325 61.8125 359.3125 C64.07041995 361.1007726 66.33602148 362.78033693 68.6875 364.4375 C70.06764906 365.427958 71.44655201 366.42015463 72.82421875 367.4140625 C73.50403809 367.90422852 74.18385742 368.39439453 74.88427734 368.89941406 C78.26451957 371.37660348 81.51432406 374.00897834 84.76171875 376.65625 C88.37017338 380.01462203 88.37017338 380.01462203 92.8125 381.3125 C92.8125 381.9725 92.8125 382.6325 92.8125 383.3125 C94.57214348 384.77440347 96.39816775 386.15678585 98.25 387.5 C99.35857708 388.31181198 100.46664584 389.12431854 101.57421875 389.9375 C102.12513184 390.3396875 102.67604492 390.741875 103.24365234 391.15625 C105.38111836 392.7315751 107.4735677 394.36104787 109.5625 396 C113.02572997 398.71391294 116.53647732 401.3531089 120.0859375 403.953125 C121.8125 405.3125 121.8125 405.3125 123.30859375 407.00390625 C124.05302734 407.65166016 124.05302734 407.65166016 124.8125 408.3125 C128.45791845 408.07772801 128.45791845 408.07772801 131.8125 407.3125 C131.8125 406.6525 131.8125 405.9925 131.8125 405.3125 C132.92625 404.9103125 132.92625 404.9103125 134.0625 404.5 C136.70311949 403.35973249 138.66802844 402.21869694 140.8125 400.3125 C140.8125 399.6525 140.8125 398.9925 140.8125 398.3125 C141.32683594 398.08691406 141.84117187 397.86132812 142.37109375 397.62890625 C145.76511269 395.79885124 148.77917892 393.54093102 151.875 391.25 C152.54039795 390.75975342 153.2057959 390.26950684 153.89135742 389.7644043 C159.68712497 385.4640939 165.26814656 380.93139232 170.8125 376.3125 C172.64081021 374.80638152 174.47397677 373.30613431 176.3125 371.8125 C177.1065625 371.1628125 177.900625 370.513125 178.71875 369.84375 C180.8125 368.3125 180.8125 368.3125 183.8125 367.3125 C183.8125 366.6525 183.8125 365.9925 183.8125 365.3125 C184.34230469 365.08175781 184.87210937 364.85101563 185.41796875 364.61328125 C188.57576848 362.89786965 191.31213832 360.71749765 194.125 358.5 C197.73509676 355.6771281 201.33775993 352.8968257 205.125 350.3125 C206.011875 349.6525 206.89875 348.9925 207.8125 348.3125 C207.8125 347.6525 207.8125 346.9925 207.8125 346.3125 C209.1325 345.9825 210.4525 345.6525 211.8125 345.3125 C211.8125 344.6525 211.8125 343.9925 211.8125 343.3125 C212.32296875 343.085625 212.8334375 342.85875 213.359375 342.625 C216.79018678 340.78940643 219.89520021 338.56566042 223.0625 336.3125 C223.7121875 335.86132812 224.361875 335.41015625 225.03125 334.9453125 C226.66325709 333.78645032 228.2429825 332.55468497 229.8125 331.3125 C229.8125 330.6525 229.8125 329.9925 229.8125 329.3125 C230.92625 328.9103125 230.92625 328.9103125 232.0625 328.5 C234.70311949 327.35973249 236.66802844 326.21869694 238.8125 324.3125 C238.8125 323.6525 238.8125 322.9925 238.8125 322.3125 C240.1325 321.9825 241.4525 321.6525 242.8125 321.3125 C242.8125 320.6525 242.8125 319.9925 242.8125 319.3125 C243.36421875 319.0546875 243.9159375 318.796875 244.484375 318.53125 C247.15564175 317.13286875 249.58101909 315.52486695 252.0625 313.8125 C252.95453125 313.2040625 253.8465625 312.595625 254.765625 311.96875 C255.77882813 311.14890625 255.77882813 311.14890625 256.8125 310.3125 C256.8125 309.6525 256.8125 308.9925 256.8125 308.3125 C257.8025 308.3125 258.7925 308.3125 259.8125 308.3125 C259.8125 307.6525 259.8125 306.9925 259.8125 306.3125 C260.6478125 306.2196875 260.6478125 306.2196875 261.5 306.125 C264.12369344 305.20316176 265.31790807 303.85791019 267.17578125 301.84765625 C270.08249305 299.1213132 273.47981992 297.0497828 276.80078125 294.86328125 C277.46464844 294.35152344 278.12851562 293.83976562 278.8125 293.3125 C278.8125 292.6525 278.8125 291.9925 278.8125 291.3125 C279.89144531 290.94511719 279.89144531 290.94511719 280.9921875 290.5703125 C284.15428966 289.16006749 286.31078979 287.43784576 288.9375 285.1875 C293.71864416 281.16093097 298.65502801 277.49844215 303.79296875 273.94140625 C304.45941406 273.40386719 305.12585938 272.86632812 305.8125 272.3125 C305.8125 271.6525 305.8125 270.9925 305.8125 270.3125 C306.36679687 270.05726563 306.92109375 269.80203125 307.4921875 269.5390625 C315.22045632 265.45374868 322.07381744 259.39164686 328.81640625 253.87890625 C330.8125 252.3125 330.8125 252.3125 332.8125 251.3125 C332.8125 250.6525 332.8125 249.9925 332.8125 249.3125 C333.369375 249.250625 333.92625 249.18875 334.5 249.125 C337.79291671 247.96802926 339.45469554 245.8471398 341.8125 243.3125 C342.575625 242.590625 343.33875 241.86875 344.125 241.125 C346.03963951 239.48127727 346.03963951 239.48127727 345.8125 237.3125 C346.8025 236.9825 347.7925 236.6525 348.8125 236.3125 C348.8125 235.6525 348.8125 234.9925 348.8125 234.3125 C349.4725 234.3125 350.1325 234.3125 350.8125 234.3125 C356.12527068 228.62639949 365.8125 218.16939475 365.8125 210.3125 C366.4725 210.3125 367.1325 210.3125 367.8125 210.3125 C381.60653921 181.14328666 387.03896253 147.18633328 376.9375 115.9375 C376.24085754 114.058125 375.53253897 112.18303602 374.8125 110.3125 C374.47734375 109.31605469 374.1421875 108.31960937 373.796875 107.29296875 C368.91738848 93.35894209 360.684803 79.35501132 350.8125 68.3125 C350.1525 68.3125 349.4925 68.3125 348.8125 68.3125 C348.565 67.74015625 348.3175 67.1678125 348.0625 66.578125 C346.61933801 63.96239389 344.93033778 62.16476544 342.8125 60.0625 C342.11125 59.35609375 341.41 58.6496875 340.6875 57.921875 C338.97139232 56.09539601 338.97139232 56.09539601 336.8125 56.3125 C336.8125 55.6525 336.8125 54.9925 336.8125 54.3125 C335.4925 53.9825 334.1725 53.6525 332.8125 53.3125 C332.8125 52.6525 332.8125 51.9925 332.8125 51.3125 C330.90234039 49.7171006 330.90234039 49.7171006 328.5 48.1875 C327.69949219 47.64867188 326.89898437 47.10984375 326.07421875 46.5546875 C323.80431294 45.07180217 323.80431294 45.07180217 320.8125 45.3125 C320.8125 44.6525 320.8125 43.9925 320.8125 43.3125 C294.41836224 27.92032748 229.70483099 10.42016901 203.8125 36.3125 Z " fill="#6472F3" transform="translate(152.1875,3.6875)"/>
<path d="M0 0 C2.35351743 0.95121329 3.72902884 1.58037105 5.125 3.7421875 C5.558125 4.79792969 5.558125 4.79792969 6 5.875 C6.33 6.67808594 6.66 7.48117188 7 8.30859375 C8.43547593 12.17204264 9.72327016 16.07656271 10.984375 20 C12.22607682 23.66779615 13.70690282 27.20299834 15.265625 30.74609375 C16.08955444 33.27485592 16.13051546 35.35706203 16 38 C16.66 38 17.32 38 18 38 C18.1858667 38.57854736 18.3717334 39.15709473 18.56323242 39.75317383 C23.11215861 53.96214795 23.11215861 53.96214795 28.953125 67.671875 C30.37133475 70.82580414 31.25627007 74.05556394 32.17578125 77.3828125 C33.46349091 81.47174837 35.24568735 85.33634166 37.01171875 89.23828125 C38 92 38 92 38 97 C57.47 97 76.94 97 97 97 C97 104.59 97 112.18 97 120 C72.25 120 47.5 120 22 120 C14.0418552 99.5361991 14.0418552 99.5361991 11.3125 91.5 C9.26536221 85.53967296 7.16583979 79.64944288 4.62890625 73.875 C4 72 4 72 4 68 C3.34 68 2.68 68 2 68 C1.896875 68.99 1.79375 69.98 1.6875 71 C1.19334605 74.50143368 0.15881838 77.55135221 -1.18359375 80.8125 C-2.30796794 83.82517725 -3.12500165 86.90580293 -4 90 C-4.91684552 93.00655477 -5.86350318 96.00345766 -6.8125 99 C-7.07603271 99.83450684 -7.33956543 100.66901367 -7.61108398 101.52880859 C-9.21222774 106.57860676 -10.86473449 111.60692092 -12.5625 116.625 C-14.59475633 122.65011891 -16.4252044 128.71428861 -18.12524414 134.84033203 C-19.17510146 138.53362052 -20.4005971 142.06119245 -21.87109375 145.609375 C-24.51741494 152.08112044 -26.47881568 158.74965631 -28.5 165.4375 C-30.87368625 173.26742408 -33.30412328 181.03186214 -36.15625 188.7019043 C-37.12360945 191.33667123 -37.96868213 193.99195336 -38.75 196.6875 C-39.11351562 197.93080078 -39.11351562 197.93080078 -39.484375 199.19921875 C-39.65453125 199.79347656 -39.8246875 200.38773438 -40 201 C-41.32 201 -42.64 201 -44 201 C-48.15818762 192.00990163 -52.0138454 182.90900489 -55.80664062 173.75976562 C-58.50767509 167.3117642 -61.44004866 161.06160525 -64.61352539 154.83374023 C-66.2693269 151.44953737 -67.65017952 148.00408109 -69.0078125 144.4921875 C-70.82917653 139.91726526 -72.93462892 135.46871198 -75 131 C-78.20299297 124.06988793 -81.22112603 117.11100501 -84 110 C-84.66 108.35 -85.32 106.7 -86 105 C-87.32 108.3 -88.64 111.6 -90 115 C-115.41 115 -140.82 115 -167 115 C-167 107.41 -167 99.82 -167 92 C-147.2 91.67 -127.4 91.34 -107 91 C-105.68 86.71 -104.36 82.42 -103 78 C-102.34 78 -101.68 78 -101 78 C-101.061875 77.34 -101.12375 76.68 -101.1875 76 C-100.98532554 72.7652087 -100.01546356 70.26540435 -98.85327148 67.26464844 C-97.99150552 64.97745499 -97.2166821 62.67705541 -96.46484375 60.3515625 C-96.21283203 59.57425781 -95.96082031 58.79695313 -95.70117188 57.99609375 C-95.18484987 56.39298656 -94.67191786 54.7887842 -94.16210938 53.18359375 C-93.91138672 52.41402344 -93.66066406 51.64445312 -93.40234375 50.8515625 C-93.18054443 50.15885254 -92.95874512 49.46614258 -92.73022461 48.75244141 C-92 47 -92 47 -90 45 C-88.00927734 45.1081543 -88.00927734 45.1081543 -86 46 C-84.81494141 47.85083008 -84.81494141 47.85083008 -83.8515625 50.26953125 C-83.30822266 51.59307617 -83.30822266 51.59307617 -82.75390625 52.94335938 C-82.38136719 53.89017578 -82.00882812 54.83699219 -81.625 55.8125 C-80.82826033 57.75763479 -80.02879846 59.70165686 -79.2265625 61.64453125 C-78.84274414 62.57990723 -78.45892578 63.5152832 -78.06347656 64.47900391 C-76.83493413 67.3912925 -75.46384272 70.19907188 -74 73 C-71.12431361 78.58078121 -68.61528835 84.30225359 -66.125 90.0625 C-65.51591797 91.45758789 -65.51591797 91.45758789 -64.89453125 92.88085938 C-64.51941406 93.75677734 -64.14429688 94.63269531 -63.7578125 95.53515625 C-63.4189502 96.322854 -63.08008789 97.11055176 -62.73095703 97.92211914 C-62 100 -62 100 -62 103 C-61.34 103 -60.68 103 -60 103 C-59.75765625 103.70125 -59.5153125 104.4025 -59.265625 105.125 C-57.50672374 110.10404356 -55.66540133 114.86821032 -53.21484375 119.54296875 C-50.23153237 125.57674 -47.66898191 131.82235649 -45 138 C-42.10111903 130.07559998 -39.39006058 122.15436858 -36.96484375 114.0703125 C-36.07172049 111.22822795 -35.06660635 108.4681469 -34 105.6875 C-31.84617058 99.93273703 -30.48534041 94.07169778 -29.125 88.08984375 C-28.14907026 84.22097941 -26.68263553 80.64477581 -25.1640625 76.96118164 C-22.96158494 71.35844456 -21.11141954 65.62859951 -19.21826172 59.91552734 C-18.50543562 57.76638816 -17.78626251 55.61944942 -17.06640625 53.47265625 C-14.47411116 45.7015733 -12.08889545 37.91399669 -9.88623047 30.02270508 C-9.15538692 27.52998497 -8.35403343 25.13366632 -7.4140625 22.71484375 C-5.76839254 18.39155057 -4.56026406 14.02918956 -3.375 9.5625 C-1.13228155 1.13228155 -1.13228155 1.13228155 0 0 Z " fill="#6673F3" transform="translate(315,122)"/>
<path d="M0 0 C0.99 0.33 1.98 0.66 3 1 C3.02685095 3.47923801 3.04676547 5.9581884 3.0625 8.4375 C3.07087891 9.14455078 3.07925781 9.85160156 3.08789062 10.58007812 C3.09653588 12.38693559 3.05220011 14.19387603 3 16 C2.67 16.33 2.34 16.66 2 17 C1.7878267 18.70328008 1.63057539 20.41352969 1.5 22.125 C0.57266436 33.28200692 0.57266436 33.28200692 -1 38 C-1.66 38 -2.32 38 -3 38 C-3 40.31 -3 42.62 -3 45 C-3.66 45 -4.32 45 -5 45 C-5.33 48.96 -5.66 52.92 -6 57 C-7.485 57.495 -7.485 57.495 -9 58 C-9.0825 59.27875 -9.165 60.5575 -9.25 61.875 C-9.51171875 64.0859375 -9.51171875 64.0859375 -10 66 C-12.0625 67.5 -12.0625 67.5 -14 68 C-13.449544 63.37616964 -12.10218313 60.12351306 -10 56 C-2.89558872 38.14296623 -0.87506701 19.02119337 0 0 Z " fill="#909AEA" transform="translate(534,147)"/>
<path d="M0 0 C15.84 0 31.68 0 48 0 C47.67 0.66 47.34 1.32 47 2 C44.21655273 2.41186523 44.21655273 2.41186523 40.49609375 2.62109375 C39.49514931 2.67770424 39.49514931 2.67770424 38.47398376 2.73545837 C30.67259819 3.1352987 22.8715034 3.10984895 15.0625 3.0625 C13.58919426 3.057465 12.11588682 3.0529057 10.64257812 3.04882812 C7.0950156 3.03800377 3.54751948 3.02085455 0 3 C0 2.01 0 1.02 0 0 Z " fill="#6674E1" transform="translate(337,239)"/>
<path d="M0 0 C2.55570992 1.0007622 3.79700949 1.68423699 5.30078125 4.0234375 C5.63464844 4.79945312 5.96851563 5.57546875 6.3125 6.375 C6.65925781 7.14585937 7.00601562 7.91671875 7.36328125 8.7109375 C8.07011845 11.2520823 7.86878073 12.54499381 7 15 C5.68 13.02 4.36 11.04 3 9 C-0.60001861 10.86207859 -1.53489703 12.98986608 -2.75 16.6875 C-3.17985483 18.12111159 -3.60082968 19.55754362 -4 21 C-4.66 21 -5.32 21 -6 21 C-5.37942343 18.43635601 -4.75370801 15.87415074 -4.125 13.3125 C-3.95097656 12.59126953 -3.77695312 11.87003906 -3.59765625 11.12695312 C-2.64902134 7.27971155 -1.59509159 3.64284431 0 0 Z " fill="#646EED" transform="translate(315,122)"/>
<path d="M0 0 C1.82421875 0.16796875 1.82421875 0.16796875 4 1 C5.51953125 3.36328125 5.51953125 3.36328125 6.8125 6.3125 C7.25207031 7.27800781 7.69164062 8.24351562 8.14453125 9.23828125 C9.02467991 12.07967441 9.05532187 13.27429137 8 16 C5.77810176 13.77810176 5.07401108 11.91517292 4 9 C3.01 9 2.02 9 1 9 C0.731875 9.639375 0.46375 10.27875 0.1875 10.9375 C-1 13 -1 13 -4 14 C-3.66009167 8.62007164 -3.31442207 4.46726453 0 0 Z " fill="#707AEC" transform="translate(225,167)"/>
<path d="M0 0 C2.16874252 0.50603992 3.99967627 0.99983813 6 2 C7.87647673 1.49707043 9.75288501 0.99388378 11.62890625 0.48925781 C15.89337196 -0.39068342 20.164444 -0.20692184 24.5 -0.125 C25.87671875 -0.11146484 25.87671875 -0.11146484 27.28125 -0.09765625 C29.52111556 -0.07432432 31.76041183 -0.04159235 34 0 C31.48199771 2.51800229 30.40254169 2.33505957 26.90625 2.5625 C25.875 2.63726563 24.84375 2.71203125 23.78125 2.7890625 C22.6984375 2.85867187 21.615625 2.92828125 20.5 3 C13.61548024 3.45559322 6.96686886 4.02815143 0.23632812 5.59765625 C-2.21555219 6.03878057 -4.51392147 6.06571133 -7 6 C-7 5.34 -7 4.68 -7 4 C-5.824375 3.8453125 -5.824375 3.8453125 -4.625 3.6875 C-1.66954819 3.22404978 -1.66954819 3.22404978 0 0 Z " fill="#7A84E2" transform="translate(380,27)"/>
<path d="M0 0 C0.33 1.32 0.66 2.64 1 4 C0.360625 4.103125 -0.27875 4.20625 -0.9375 4.3125 C-1.9584375 4.6528125 -1.9584375 4.6528125 -3 5 C-3.33 5.99 -3.66 6.98 -4 8 C-4.66 8 -5.32 8 -6 8 C-6 8.66 -6 9.32 -6 10 C-7.48856066 11.33264423 -9.04303645 12.59219479 -10.625 13.8125 C-11.98625 14.87404297 -11.98625 14.87404297 -13.375 15.95703125 C-14.674375 16.96830078 -14.674375 16.96830078 -16 18 C-18.01544417 19.64935763 -20.00790135 21.32244324 -22 23 C-22.66 22.34 -23.32 21.68 -24 21 C-16.47282924 13.14972334 -9.09934114 6.0358355 0 0 Z " fill="#7A83E8" transform="translate(67,30)"/>
<path d="M0 0 C0.66 0 1.32 0 2 0 C1.89498169 0.81198853 1.89498169 0.81198853 1.7878418 1.64038086 C0.94521724 8.9245014 0.81382309 16.17994951 0.81469727 23.50463867 C0.81249995 25.56254454 0.79424268 27.61992195 0.77539062 29.67773438 C0.74913608 36.03195711 0.9180216 41.98934462 2.55249023 48.15551758 C3.19588318 50.80736355 3.19378698 53.34541445 3.125 56.0625 C3.10695313 57.00222656 3.08890625 57.94195312 3.0703125 58.91015625 C3.04710937 59.59980469 3.02390625 60.28945312 3 61 C2.67 61 2.34 61 2 61 C-0.50791547 49.35313464 -1.42674082 38.23483066 -1.28125 26.32958984 C-1.24952111 23.71046945 -1.24020321 21.09195172 -1.234375 18.47265625 C-1.22522304 16.78905515 -1.21485311 15.10546013 -1.203125 13.421875 C-1.19675018 12.26096344 -1.19675018 12.26096344 -1.19024658 11.07659912 C-1.13981617 7.26809852 -0.91448698 3.70376391 0 0 Z " fill="#868FE5" transform="translate(3,130)"/>
<path d="M0 0 C6.625 -0.125 6.625 -0.125 10 1 C9.45660208 5.56454251 8.20536179 8.9728176 6 13 C5.34 13 4.68 13 4 13 C3.32404685 11.58774074 2.65959941 10.16997095 2 8.75 C1.62875 7.96109375 1.2575 7.1721875 0.875 6.359375 C0 4 0 4 0 0 Z " fill="#6976EB" transform="translate(275,116)"/>
<path d="M0 0 C0.66 0 1.32 0 2 0 C2 0.66 2 1.32 2 2 C3.32 2.33 4.64 2.66 6 3 C6 3.66 6 4.32 6 5 C6.53109375 5.23460937 7.0621875 5.46921875 7.609375 5.7109375 C10.7177631 7.38702912 13.45399703 9.48451926 16.25 11.625 C16.80429688 12.04523438 17.35859375 12.46546875 17.9296875 12.8984375 C19.28866663 13.92938719 20.64463835 14.96429911 22 16 C21.01 16.66 20.02 17.32 19 18 C19 17.34 19 16.68 19 16 C18.01 16 17.02 16 16 16 C15.67 16.66 15.34 17.32 15 18 C15 17.34 15 16.68 15 16 C13.68 15.67 12.36 15.34 11 15 C11 14.01 11 13.02 11 12 C10.67 11.34 10.34 10.68 10 10 C7.6859378 9.26924352 5.35171131 8.59861742 3 8 C3 7.01 3 6.02 3 5 C2.01 4.67 1.02 4.34 0 4 C0 2.68 0 1.36 0 0 Z " fill="#7D85E7" transform="translate(145,309)"/>
<path d="M0 0 C3.99500618 1.3697164 6.80009492 3.25722422 10 6 C10.66 5.67 11.32 5.34 12 5 C12.33 6.65 12.66 8.3 13 10 C13.66 10 14.32 10 15 10 C15 10.99 15 11.98 15 13 C15.33 12.01 15.66 11.02 16 10 C16.99 10.33 17.98 10.66 19 11 C19 11.99 19 12.98 19 14 C18.34 14 17.68 14 17 14 C17.33 15.32 17.66 16.64 18 18 C17.34 18 16.68 18 16 18 C16 17.34 16 16.68 16 16 C15.360625 15.731875 14.72125 15.46375 14.0625 15.1875 C12 14 12 14 11 11 C10.01 10.67 9.02 10.34 8 10 C8 9.34 8 8.68 8 8 C7.34 8 6.68 8 6 8 C4.4921875 6.25 4.4921875 6.25 2.875 4 C2.33617187 3.2575 1.79734375 2.515 1.2421875 1.75 C0.62730469 0.88375 0.62730469 0.88375 0 0 Z " fill="#6470ED" transform="translate(35,250)"/>
<path d="M0 0 C0.33 0 0.66 0 1 0 C2.70273272 10.72057428 4.29452061 21.37471456 4.3125 32.25 C4.31765625 33.00522949 4.3228125 33.76045898 4.328125 34.53857422 C4.26047029 39.73952971 4.26047029 39.73952971 2 42 C1.97494385 41.36497559 1.9498877 40.72995117 1.92407227 40.07568359 C1.80743211 37.17528458 1.68501607 34.27515651 1.5625 31.375 C1.50352539 29.87646484 1.50352539 29.87646484 1.44335938 28.34765625 C1.23341938 23.4705886 0.8207725 18.81519867 0 14 C-0.06578002 11.54245859 -0.08569162 9.08331222 -0.0625 6.625 C-0.05347656 5.37976563 -0.04445313 4.13453125 -0.03515625 2.8515625 C-0.02355469 1.91054687 -0.01195312 0.96953125 0 0 Z " fill="#9EA7E5" transform="translate(555,123)"/>
<path d="M0 0 C0.33 0.66 0.66 1.32 1 2 C1.66 2.33 2.32 2.66 3 3 C1.6875 5 1.6875 5 0 7 C-0.99 7 -1.98 7 -3 7 C-3 7.66 -3 8.32 -3 9 C-3.66 9 -4.32 9 -5 9 C-5.66 10.98 -6.32 12.96 -7 15 C-7.66 15 -8.32 15 -9 15 C-9.33 16.65 -9.66 18.3 -10 20 C-10.66 20 -11.32 20 -12 20 C-12 20.66 -12 21.32 -12 22 C-14.5 23.625 -14.5 23.625 -17 25 C-16.34 23.02 -15.68 21.04 -15 19 C-14.34 19 -13.68 19 -13 19 C-12.690625 18.21625 -12.38125 17.4325 -12.0625 16.625 C-11 14 -11 14 -10 12 C-9.34 12 -8.68 12 -8 12 C-7.60167969 11.14148438 -7.60167969 11.14148438 -7.1953125 10.265625 C-5.94323109 7.8923988 -4.5063648 5.87786714 -2.875 3.75 C-2.06675781 2.69039062 -2.06675781 2.69039062 -1.2421875 1.609375 C-0.83226563 1.07828125 -0.42234375 0.5471875 0 0 Z " fill="#8289E7" transform="translate(40,54)"/>
<path d="M0 0 C0.99 0.33 1.98 0.66 3 1 C3 1.33 3 1.66 3 2 C3.90492188 2.16435547 3.90492188 2.16435547 4.828125 2.33203125 C12.76625659 3.90685413 12.76625659 3.90685413 16 7 C10.60010815 6.53449208 5.47512439 5.70306659 0.1875 4.5 C-6.20321788 3.07443181 -12.46791101 2.34694246 -19 2 C-19 1.67 -19 1.34 -19 1 C-17.71222656 1.01160156 -16.42445313 1.02320312 -15.09765625 1.03515625 C-13.41927228 1.0445327 -11.74088674 1.05363305 -10.0625 1.0625 C-9.21236328 1.07087891 -8.36222656 1.07925781 -7.48632812 1.08789062 C-6.67744141 1.09111328 -5.86855469 1.09433594 -5.03515625 1.09765625 C-4.2862915 1.10289307 -3.53742676 1.10812988 -2.76586914 1.11352539 C-0.97332261 1.19341752 -0.97332261 1.19341752 0 0 Z " fill="#8993EB" transform="translate(432,28)"/>
<path d="M0 0 C0.07089844 0.59296875 0.14179688 1.1859375 0.21484375 1.796875 C1.290287 4.81453665 2.87157792 5.58238632 5.5625 7.25 C6.38878906 7.77078125 7.21507812 8.2915625 8.06640625 8.828125 C9.02353516 9.40820312 9.02353516 9.40820312 10 10 C9.67 10.99 9.34 11.98 9 13 C9.66 13.33 10.32 13.66 11 14 C10.01 14.495 10.01 14.495 9 15 C5.52599764 13.72619913 3.57910036 11.57910036 1 9 C-1.62396507 6.94119664 -4.30394559 4.96314642 -7 3 C-5 2 -5 2 -2.9375 1.5 C-1.00759217 1.17692051 -1.00759217 1.17692051 0 0 Z " fill="#7F89EC" transform="translate(204,378)"/>
<path d="M0 0 C2.06074591 2.06074591 2.54956111 3.12175585 3.47265625 5.80859375 C3.73240234 6.55560547 3.99214844 7.30261719 4.25976562 8.07226562 C4.52466797 8.85279297 4.78957031 9.63332031 5.0625 10.4375 C5.33126953 11.21416016 5.60003906 11.99082031 5.87695312 12.79101562 C6.93526742 15.85511262 7.974877 18.924631 9 22 C7.02 22.33 5.04 22.66 3 23 C1.57055055 20.64561267 0.91338739 19.51967567 1.375 16.75 C1.58125 16.1725 1.7875 15.595 2 15 C2 15.66 2 16.32 2 17 C2.66 17 3.32 17 4 17 C3.71125 16.10796875 3.4225 15.2159375 3.125 14.296875 C2.75375 13.12640625 2.3825 11.9559375 2 10.75 C1.62875 9.58984375 1.2575 8.4296875 0.875 7.234375 C0 4 0 4 0 0 Z " fill="#6C77EE" transform="translate(31,190)"/>
<path d="M0 0 C0.66 0.33 1.32 0.66 2 1 C1.06404571 4.3538362 0.09883384 7.68810632 -0.953125 11.0078125 C-3.04999993 17.62705202 -4.8255327 24.15409191 -6 31 C-6.33 31 -6.66 31 -7 31 C-7.19441368 28.7089095 -7.38033135 26.41709663 -7.5625 24.125 C-7.66691406 22.84882812 -7.77132813 21.57265625 -7.87890625 20.2578125 C-8 17 -8 17 -7 15 C-6.34 15 -5.68 15 -5 15 C-4.67 13.02 -4.34 11.04 -4 9 C-3.34 9 -2.68 9 -2 9 C-2 8.01 -2 7.02 -2 6 C-1.34 6 -0.68 6 0 6 C0 4.02 0 2.04 0 0 Z " fill="#8A94E6" transform="translate(35,102)"/>
<path d="M0 0 C2 2 2 2 2.15234375 4.1875 C1.41555117 13.83278471 -1.22391433 22.78052728 -4 32 C-4.33 32 -4.66 32 -5 32 C-4.979375 31.2575 -4.95875 30.515 -4.9375 29.75 C-4.99328688 27.29537721 -5.3069904 25.33890739 -6 23 C-5.01 23 -4.02 23 -3 23 C-2.93941406 22.15695313 -2.87882813 21.31390625 -2.81640625 20.4453125 C-2.73261719 19.34960938 -2.64882813 18.25390625 -2.5625 17.125 C-2.48128906 16.03445312 -2.40007813 14.94390625 -2.31640625 13.8203125 C-2 11 -2 11 -1 9 C-0.77532169 7.46331135 -0.59203195 5.92031946 -0.4375 4.375 C-0.35371094 3.55773437 -0.26992188 2.74046875 -0.18359375 1.8984375 C-0.12300781 1.27195313 -0.06242188 0.64546875 0 0 Z " fill="#8088E6" transform="translate(555,172)"/>
<path d="M0 0 C2.97 0.495 2.97 0.495 6 1 C4.70638752 4.88083745 2.30678035 6.31504237 -0.875 8.625 C-1.41769531 9.03234375 -1.96039063 9.4396875 -2.51953125 9.859375 C-5.00320196 11.69328344 -7.05114504 13.01704835 -10 14 C-10 13.34 -10 12.68 -10 12 C-10.66 11.67 -11.32 11.34 -12 11 C-11.01 10.01 -10.02 9.02 -9 8 C-9 8.66 -9 9.32 -9 10 C-8.34 9.67 -7.68 9.34 -7 9 C-7 8.01 -7 7.02 -7 6 C-4.69 6 -2.38 6 0 6 C0 4.02 0 2.04 0 0 Z " fill="#7581EA" transform="translate(363,374)"/>
<path d="M0 0 C1.03125 0.33 2.0625 0.66 3.125 1 C6.48426709 1.9715192 9.49106202 2.17116771 13 2 C13.66 3.32 14.32 4.64 15 6 C14.34 6.66 13.68 7.32 13 8 C13.66 8.33 14.32 8.66 15 9 C15 9.66 15 10.32 15 11 C15.66 11 16.32 11 17 11 C16.67 11.66 16.34 12.32 16 13 C13.5 11.625 13.5 11.625 11 10 C11 9.34 11 8.68 11 8 C10.38125 7.690625 9.7625 7.38125 9.125 7.0625 C7.75 6.375 6.375 5.6875 5 5 C5 4.34 5 3.68 5 3 C2.525 2.01 2.525 2.01 0 1 C0 0.67 0 0.34 0 0 Z " fill="#828DE9" transform="translate(233,408)"/>
<path d="M0 0 C1.32 0 2.64 0 4 0 C2.59313702 4.09269229 0.49604131 7.44864363 -1.82421875 11.0625 C-3.17426496 13.28716086 -4.15462847 15.54073736 -5 18 C-5.33 18 -5.66 18 -6 18 C-5.67 15.69 -5.34 13.38 -5 11 C-5.66 11 -6.32 11 -7 11 C-6.67 9.68 -6.34 8.36 -6 7 C-5.01 7.33 -4.02 7.66 -3 8 C-2.67 6.68 -2.34 5.36 -2 4 C-1.34 4 -0.68 4 0 4 C0 2.68 0 1.36 0 0 Z " fill="#858DE9" transform="translate(297,86)"/>
<path d="M0 0 C1.1864302 3.55929059 0.78815489 4.07260504 -0.6875 7.375 C-3.26491539 13.44584602 -5.13751978 19.67945541 -7 26 C-7.33 26 -7.66 26 -8 26 C-8.66268329 18.87615459 -6.25388064 12.69120815 -4 6 C-3.34 6 -2.68 6 -2 6 C-2 4.68 -2 3.36 -2 2 C-1.34 2 -0.68 2 0 2 C0 1.34 0 0.68 0 0 Z " fill="#878FE9" transform="translate(311,208)"/>
<path d="M0 0 C-0.33 1.32 -0.66 2.64 -1 4 C-2.32 4 -3.64 4 -5 4 C-5 6.31 -5 8.62 -5 11 C-7.97 10.67 -10.94 10.34 -14 10 C-4.57142857 0 -4.57142857 0 0 0 Z " fill="#727CE9" transform="translate(451,282)"/>
<path d="M0 0 C0.78375 0.04125 1.5675 0.0825 2.375 0.125 C1.90449219 0.84945312 1.43398438 1.57390625 0.94921875 2.3203125 C-3.69320817 9.52510298 -3.69320817 9.52510298 -7.625 17.125 C-7.955 17.125 -8.285 17.125 -8.625 17.125 C-8.625 8.70192308 -8.625 8.70192308 -5.625 5.125 C-4.965 5.125 -4.305 5.125 -3.625 5.125 C-3.955 4.135 -4.285 3.145 -4.625 2.125 C-2.625 0.125 -2.625 0.125 0 0 Z " fill="#7E86EB" transform="translate(48.625,80.875)"/>
<path d="M0 0 C0 0.99 0 1.98 0 3 C-0.639375 3.226875 -1.27875 3.45375 -1.9375 3.6875 C-2.618125 4.120625 -3.29875 4.55375 -4 5 C-4.144375 5.763125 -4.28875 6.52625 -4.4375 7.3125 C-5.23922759 11.14297625 -6.98314655 12.58651724 -10 15 C-13.3125 15.8125 -13.3125 15.8125 -16 16 C-11.17917294 10.03739811 -5.77505724 5.03320206 0 0 Z " fill="#848BE7" transform="translate(314,35)"/>
<path d="M0 0 C0.33 1.32 0.66 2.64 1 4 C0.01 4.495 0.01 4.495 -1 5 C-1.66 4.67 -2.32 4.34 -3 4 C-3.2475 4.639375 -3.495 5.27875 -3.75 5.9375 C-5 8 -5 8 -7.125 8.75 C-8.053125 8.87375 -8.053125 8.87375 -9 9 C-9 9.66 -9 10.32 -9 11 C-11.3125 12.6875 -11.3125 12.6875 -14 14 C-14.99 13.67 -15.98 13.34 -17 13 C-16.34 13 -15.68 13 -15 13 C-15 12.34 -15 11.68 -15 11 C-13.09370402 9.41585327 -11.19294416 7.94799082 -9.1875 6.5 C-8.36668945 5.89478516 -8.36668945 5.89478516 -7.52929688 5.27734375 C-5.05434037 3.4593757 -2.55544809 1.70363206 0 0 Z " fill="#8590E5" transform="translate(308,391)"/>
<path d="M0 0 C0.66 0.99 1.32 1.98 2 3 C0.68 3.33 -0.64 3.66 -2 4 C-2.33 5.98 -2.66 7.96 -3 10 C-3.66 10 -4.32 10 -5 10 C-5.33 10.99 -5.66 11.98 -6 13 C-6.804375 13.474375 -7.60875 13.94875 -8.4375 14.4375 C-11.15666889 16.09552981 -11.89407115 17.08436939 -13 20 C-13.66 19.67 -14.32 19.34 -15 19 C-13.625 16.5 -13.625 16.5 -12 14 C-11.34 14 -10.68 14 -10 14 C-9.773125 13.484375 -9.54625 12.96875 -9.3125 12.4375 C-6.82070415 7.80987913 -3.79537228 3.64045913 0 0 Z " fill="#8D94E9" transform="translate(297,51)"/>
<path d="M0 0 C0.50789063 0.38671875 1.01578125 0.7734375 1.5390625 1.171875 C5.61331983 4.25427193 9.71647931 7.21571155 14 10 C13.67 10.66 13.34 11.32 13 12 C12.01 12 11.02 12 10 12 C9.34 11.34 8.68 10.68 8 10 C5.61881834 7.77831634 5.61881834 7.77831634 3 6 C2.01 6.33 1.02 6.66 0 7 C-1.04449911 3.86650268 -0.93423645 3.01031744 0 0 Z " fill="#828BE9" transform="translate(76,255)"/>
<path d="M0 0 C0.33 0.66 0.66 1.32 1 2 C1.5775 2.268125 2.155 2.53625 2.75 2.8125 C7.05293432 5.08349312 10.16619282 8.49883692 12 13 C11.34 13.66 10.68 14.32 10 15 C8.9171875 13.3603125 8.9171875 13.3603125 7.8125 11.6875 C5.99121617 9.09086963 5.00401969 8.00232249 2.1875 6.375 C1.1046875 5.694375 1.1046875 5.694375 0 5 C-0.3125 2.3125 -0.3125 2.3125 0 0 Z " fill="#7D84E7" transform="translate(514,49)"/>
<path d="M0 0 C6.32249485 1.87966063 14.26557671 4.26557671 19 9 C18.01 9.33 17.02 9.66 16 10 C15.67 9.34 15.34 8.68 15 8 C12.64400765 7.53248212 12.64400765 7.53248212 9.9375 7.375 C9.01839844 7.30023437 8.09929687 7.22546875 7.15234375 7.1484375 C6.44207031 7.09945313 5.73179687 7.05046875 5 7 C5 6.34 5 5.68 5 5 C4.01 5 3.02 5 2 5 C2 4.01 2 3.02 2 2 C1.34 2 0.68 2 0 2 C0 1.34 0 0.68 0 0 Z " fill="#8189E9" transform="translate(209,15)"/>
<path d="M0 0 C0.66 0.33 1.32 0.66 2 1 C1.67 1.66 1.34 2.32 1 3 C0.34 3 -0.32 3 -1 3 C-1.1546875 3.8971875 -1.1546875 3.8971875 -1.3125 4.8125 C-2.14500965 7.46139433 -2.7189058 8.40323406 -5 10 C-8.6875 10.6875 -8.6875 10.6875 -12 11 C-12 10.34 -12 9.68 -12 9 C-10.68 8.67 -9.36 8.34 -8 8 C-8 7.34 -8 6.68 -8 6 C-6.25 4.4921875 -6.25 4.4921875 -4 2.875 C-3.2575 2.33617187 -2.515 1.79734375 -1.75 1.2421875 C-1.1725 0.83226562 -0.595 0.42234375 0 0 Z " fill="#7A81EA" transform="translate(403,317)"/>
<path d="M0 0 C0 0.99 0 1.98 0 3 C-0.66 3 -1.32 3 -2 3 C-2 3.99 -2 4.98 -2 6 C-2.66 6 -3.32 6 -4 6 C-4.2475 6.5775 -4.495 7.155 -4.75 7.75 C-6.16683317 10.3002997 -7.87627537 12.01785701 -10 14 C-10 12.35 -10 10.7 -10 9 C-9.34 9 -8.68 9 -8 9 C-7.67 7.35 -7.34 5.7 -7 4 C-5.68 3.67 -4.36 3.34 -3 3 C-3 2.34 -3 1.68 -3 1 C-2.01 0.67 -1.02 0.34 0 0 Z " fill="#7B81EC" transform="translate(528,244)"/>
<path d="M0 0 C0.66 0 1.32 0 2 0 C2 0.66 2 1.32 2 2 C2.66 2.33 3.32 2.66 4 3 C3.01 4.485 3.01 4.485 2 6 C2.99 6 3.98 6 5 6 C4.67 6.99 4.34 7.98 4 9 C1.6875 9.6875 1.6875 9.6875 -1 10 C-2.8125 8.5625 -2.8125 8.5625 -4 7 C-3.01 7 -2.02 7 -1 7 C-1.020625 6.030625 -1.04125 5.06125 -1.0625 4.0625 C-1 1 -1 1 0 0 Z " fill="#7A85EF" transform="translate(280,434)"/>
<path d="M0 0 C1.231394 2.46278801 1.07159196 4.2795055 1 7 C0.01 7.33 -0.98 7.66 -2 8 C-2.0825 9.27875 -2.165 10.5575 -2.25 11.875 C-2.51171875 14.0859375 -2.51171875 14.0859375 -3 16 C-5.0625 17.5 -5.0625 17.5 -7 18 C-6.45212027 13.39781027 -5.09532636 10.10334745 -3 6 C-2.814375 5.071875 -2.62875 4.14375 -2.4375 3.1875 C-2.293125 2.465625 -2.14875 1.74375 -2 1 C-1.34 0.67 -0.68 0.34 0 0 Z " fill="#7C86E3" transform="translate(527,197)"/>
<path d="M0 0 C1.82421875 0.16796875 1.82421875 0.16796875 4 1 C5.51953125 3.36328125 5.51953125 3.36328125 6.8125 6.3125 C7.25207031 7.27800781 7.69164062 8.24351562 8.14453125 9.23828125 C9.02467991 12.07967441 9.05532187 13.27429137 8 16 C5.59195432 13.59195432 4.99231241 11.57796225 3.875 8.375 C3.52179688 7.37210938 3.16859375 6.36921875 2.8046875 5.3359375 C2.53914062 4.56507813 2.27359375 3.79421875 2 3 C0.68 3.33 -0.64 3.66 -2 4 C-1.34 2.68 -0.68 1.36 0 0 Z " fill="#838BE5" transform="translate(225,167)"/>
<path d="M0 0 C1.32 0 2.64 0 4 0 C4 0.99 4 1.98 4 3 C4.99 3 5.98 3 7 3 C6.95875 3.680625 6.9175 4.36125 6.875 5.0625 C7.02549965 8.59924168 7.94375853 11.63323033 9 15 C6.36115438 12.59888822 4.63586471 9.99444972 2.8125 6.9375 C2.01779297 5.62072266 2.01779297 5.62072266 1.20703125 4.27734375 C0 2 0 2 0 0 Z " fill="#868DE9" transform="translate(16,220)"/>
<path d="M0 0 C0.66 0.99 1.32 1.98 2 3 C1.29960565 4.66760559 0.58656789 6.3317125 -0.20703125 7.95703125 C-1.36973307 10.95256352 -1.46203432 13.89341421 -1.59375 17.08203125 C-2 19 -2 19 -5 21 C-4.5003731 13.50559651 -2.56235522 7.04349737 0 0 Z " fill="#9098EB" transform="translate(9,108)"/>
<path d="M0 0 C1.65 0 3.3 0 5 0 C3.33333333 1.66666667 1.66666667 3.33333333 0 5 C-0.515625 5.61875 -1.03125 6.2375 -1.5625 6.875 C-2.2740625 7.431875 -2.2740625 7.431875 -3 8 C-5.1875 7.6875 -5.1875 7.6875 -7 7 C-7 6.01 -7 5.02 -7 4 C-6.01 4 -5.02 4 -4 4 C-3.34 3.01 -2.68 2.02 -2 1 C-1.34 1.33 -0.68 1.66 0 2 C0 1.34 0 0.68 0 0 Z " fill="#7B82EC" transform="translate(429,325)"/>
<path d="M0 0 C2.97 0.495 2.97 0.495 6 1 C5.5978125 1.8353125 5.5978125 1.8353125 5.1875 2.6875 C5.125625 3.450625 5.06375 4.21375 5 5 C7.35426499 7.77122275 7.35426499 7.77122275 10 10 C9.01 10.495 9.01 10.495 8 11 C5.03 8.69 2.06 6.38 -1 4 C-0.67 2.68 -0.34 1.36 0 0 Z " fill="#7D88EE" transform="translate(54,265)"/>
<path d="M0 0 C3.72006826 4.118647 6.30824355 8.71715318 8 14 C7.67 14.66 7.34 15.32 7 16 C6.38125 15.195625 5.7625 14.39125 5.125 13.5625 C3.25835959 10.96125481 3.25835959 10.96125481 1 10 C1 7.69 1 5.38 1 3 C0.34 2.67 -0.32 2.34 -1 2 C-0.67 1.34 -0.34 0.68 0 0 Z " fill="#6974E0" transform="translate(235,185)"/>
<path d="M0 0 C0.66 0.99 1.32 1.98 2 3 C1.2578125 5.35546875 1.2578125 5.35546875 0 8 C-0.35320313 8.88300781 -0.70640625 9.76601562 -1.0703125 10.67578125 C-2.046875 13.1171875 -3.0234375 15.55859375 -4 18 C-4.66 18 -5.32 18 -6 18 C-5.49899304 12.98993036 -4.396833 9.41017273 -2 5 C-1.31471955 3.34089996 -0.64108137 1.67667436 0 0 Z " fill="#969CE7" transform="translate(16,89)"/>
<path d="M0 0 C0.99 0 1.98 0 3 0 C3 0.99 3 1.98 3 3 C3.66 3.33 4.32 3.66 5 4 C5.81640625 5.77734375 5.81640625 5.77734375 6.5625 7.9375 C7.29822324 10.03793267 8.00401313 12.00802626 9 14 C8.0625 16.125 8.0625 16.125 7 18 C6.61908203 16.89591797 6.61908203 16.89591797 6.23046875 15.76953125 C5.88628906 14.79371094 5.54210937 13.81789063 5.1875 12.8125 C4.85105469 11.84957031 4.51460937 10.88664062 4.16796875 9.89453125 C3.02104583 7.05215705 1.57818238 4.61824526 0 2 C0 1.34 0 0.68 0 0 Z " fill="#8F96E9" transform="translate(518,94)"/>
<path d="M0 0 C1.65 0 3.3 0 5 0 C5 0.66 5 1.32 5 2 C3.68 2.33 2.36 2.66 1 3 C1 3.66 1 4.32 1 5 C-1.31 6.32 -3.62 7.64 -6 9 C-5.67 7.35 -5.34 5.7 -5 4 C-4.01 4 -3.02 4 -2 4 C-1.34 2.68 -0.68 1.36 0 0 Z " fill="#7A86E4" transform="translate(403,345)"/>
<path d="M0 0 C1.98 0 3.96 0 6 0 C6.12375 0.804375 6.2475 1.60875 6.375 2.4375 C6.684375 3.7059375 6.684375 3.7059375 7 5 C7.66 5.33 8.32 5.66 9 6 C8.67 6.99 8.34 7.98 8 9 C5.03 6.69 2.06 4.38 -1 2 C-0.67 1.34 -0.34 0.68 0 0 Z " fill="#818AE8" transform="translate(135,330)"/>
<path d="M0 0 C0.33 0.99 0.66 1.98 1 3 C-0.36328125 5.0078125 -0.36328125 5.0078125 -2.3125 7.125 C-2.94800781 7.82882813 -3.58351563 8.53265625 -4.23828125 9.2578125 C-6 11 -6 11 -8 12 C-8.66 11.34 -9.32 10.68 -10 10 C-6.7 6.7 -3.4 3.4 0 0 Z " fill="#8590EB" transform="translate(53,41)"/>
<path d="M0 0 C4.96916636 0.51405169 9.29026351 1.23384882 14 3 C14 3.33 14 3.66 14 4 C13.07767578 3.98259766 13.07767578 3.98259766 12.13671875 3.96484375 C10.92435547 3.95130859 10.92435547 3.95130859 9.6875 3.9375 C8.88699219 3.92589844 8.08648437 3.91429687 7.26171875 3.90234375 C4.83138666 3.90342145 4.83138666 3.90342145 2 5 C-0.6875 4.5625 -0.6875 4.5625 -3 4 C-2.67 3.34 -2.34 2.68 -2 2 C-1.34 2 -0.68 2 0 2 C0 1.34 0 0.68 0 0 Z " fill="#848CED" transform="translate(446,10)"/>
<path d="M0 0 C-2.59421357 2.49044503 -3.76727505 2.99153727 -7.4375 3.125 C-8.613125 3.08375 -9.78875 3.0425 -11 3 C-12.36125 3.309375 -12.36125 3.309375 -13.75 3.625 C-16 4 -16 4 -19 2 C-16.9620493 1.46481117 -14.91940991 0.94745907 -12.875 0.4375 C-11.73804688 0.14746094 -10.60109375 -0.14257812 -9.4296875 -0.44140625 C-5.93510616 -1.01056927 -3.42796653 -0.78666101 0 0 Z " fill="#6F76E2" transform="translate(380,8)"/>
<path d="M0 0 C0.33 0.66 0.66 1.32 1 2 C-1.31 4.64 -3.62 7.28 -6 10 C-7.65 9.67 -9.3 9.34 -11 9 C-8.77276018 6.66034429 -6.41043353 4.72900834 -3.8125 2.8125 C-3.09707031 2.28269531 -2.38164062 1.75289063 -1.64453125 1.20703125 C-1.10183594 0.80871094 -0.55914062 0.41039062 0 0 Z " fill="#838BEB" transform="translate(436,292)"/>
<path d="M0 0 C0 0.66 0 1.32 0 2 C1.32 2.66 2.64 3.32 4 4 C3.34 4.66 2.68 5.32 2 6 C-2.29 4.68 -6.58 3.36 -11 2 C-6.80312837 -0.79791442 -4.79748656 -1.16695619 0 0 Z " fill="#7881E9" transform="translate(201,34)"/>
<path d="M0 0 C3.03852705 1.40976705 5.5939595 3.08870228 8.25 5.125 C8.95640625 5.66382813 9.6628125 6.20265625 10.390625 6.7578125 C10.92171875 7.16773438 11.4528125 7.57765625 12 8 C11.34 8.66 10.68 9.32 10 10 C9.34 9.01 8.68 8.02 8 7 C4.43230448 6.26393501 4.43230448 6.26393501 1 6 C0.67 4.02 0.34 2.04 0 0 Z " fill="#8A91E5" transform="translate(218,366)"/>
<path d="M0 0 C4.83256305 0.41421969 6.82679218 2.46413986 10 6 C9.01 6.33 8.02 6.66 7 7 C7 6.34 7 5.68 7 5 C6.01 5 5.02 5 4 5 C3.67 5.66 3.34 6.32 3 7 C3 6.34 3 5.68 3 5 C1.68 4.67 0.36 4.34 -1 4 C-0.67 2.68 -0.34 1.36 0 0 Z " fill="#7A84EB" transform="translate(157,320)"/>
<path d="M0 0 C0.66 0.33 1.32 0.66 2 1 C1.52372025 2.95903745 1.04388577 4.91721097 0.5625 6.875 C0.29566406 7.96554687 0.02882813 9.05609375 -0.24609375 10.1796875 C-1 13 -1 13 -2 15 C-3.32 15 -4.64 15 -6 15 C-6 14.01 -6 13.02 -6 12 C-5.34 12 -4.68 12 -4 12 C-2.68 8.04 -1.36 4.08 0 0 Z " fill="#9093E1" transform="translate(277,308)"/>
<path d="M0 0 C0 0.66 0 1.32 0 2 C-1.61457079 3.43581474 -3.29219075 4.80144783 -5 6.125 C-5.928125 6.84945313 -6.85625 7.57390625 -7.8125 8.3203125 C-8.534375 8.87460937 -9.25625 9.42890625 -10 10 C-10.33 9.01 -10.66 8.02 -11 7 C-9.68 6.34 -8.36 5.68 -7 5 C-7 3.68 -7 2.36 -7 1 C-4 0 -4 0 0 0 Z " fill="#8C93E7" transform="translate(512,264)"/>
<path d="M0 0 C0.33 0 0.66 0 1 0 C2.25841946 6.74153283 3.26404456 13.13484138 3 20 C2.34 20 1.68 20 1 20 C0.11722245 15.48184719 -0.10589503 11.22487306 -0.0625 6.625 C-0.05347656 5.37976563 -0.04445313 4.13453125 -0.03515625 2.8515625 C-0.02355469 1.91054687 -0.01195312 0.96953125 0 0 Z " fill="#9096E8" transform="translate(555,123)"/>
<path d="M0 0 C3.04422177 2.60933295 4.59342703 5.24913875 6 9 C6.24341685 12.68167988 6.17697118 16.31637769 6 20 C5.67 20 5.34 20 5 20 C3.33333333 13.33333333 1.66666667 6.66666667 0 0 Z " fill="#959DE7" transform="translate(526,112)"/>
<path d="M0 0 C3.58273331 1.65356922 6.80973467 3.67980703 10 6 C10 6.66 10 7.32 10 8 C10.66 8 11.32 8 12 8 C11.67 8.99 11.34 9.98 11 11 C11 10.34 11 9.68 11 9 C10.41734375 8.88398438 9.8346875 8.76796875 9.234375 8.6484375 C6.85372375 7.9575492 5.26928088 7.0488519 3.25 5.625 C2.63640625 5.20476562 2.0228125 4.78453125 1.390625 4.3515625 C0.93171875 3.90554688 0.4728125 3.45953125 0 3 C0 2.01 0 1.02 0 0 Z " fill="#868DE8" transform="translate(181,366)"/>
<path d="M0 0 C0 0.66 0 1.32 0 2 C-1.782129 3.44074715 -3.62660276 4.80510649 -5.5 6.125 C-7.03140625 7.21167969 -7.03140625 7.21167969 -8.59375 8.3203125 C-9.3878125 8.87460937 -10.181875 9.42890625 -11 10 C-11.33 9.01 -11.66 8.02 -12 7 C-11.34 7 -10.68 7 -10 7 C-9.34 5.68 -8.68 4.36 -8 3 C-7.34 3 -6.68 3 -6 3 C-6 2.34 -6 1.68 -6 1 C-3 0 -3 0 0 0 Z " fill="#7D82E6" transform="translate(461,304)"/>
<path d="M0 0 C3 1 3 1 4.203125 3.36328125 C4.54859375 4.33652344 4.8940625 5.30976563 5.25 6.3125 C5.60578125 7.27800781 5.9615625 8.24351562 6.328125 9.23828125 C7.00546613 12.02246834 6.98017307 13.35478935 6 16 C0.44419134 5.62642369 0.44419134 5.62642369 0 0 Z " fill="#8892E6" transform="translate(264,304)"/>
<path d="M0 0 C0.6015625 1.859375 0.6015625 1.859375 1 4 C-0.625 6.25 -0.625 6.25 -3 8 C-5.75 8.25 -5.75 8.25 -8 8 C-6.88333826 4.65001479 -6.25305075 4.20659778 -3.4375 2.3125 C-2.79683594 1.87550781 -2.15617187 1.43851562 -1.49609375 0.98828125 C-1.00238281 0.66214844 -0.50867188 0.33601563 0 0 Z " fill="#8288E8" transform="translate(424,301)"/>
<path d="M0 0 C1.35814777 4.0744433 -0.05254238 6.81468116 -1.4375 10.6875 C-1.68048828 11.38939453 -1.92347656 12.09128906 -2.17382812 12.81445312 C-2.7744944 14.54578532 -3.38619719 16.27328137 -4 18 C-4.33 18 -4.66 18 -5 18 C-5 14.7 -5 11.4 -5 8 C-4.34 8 -3.68 8 -3 8 C-2.690625 7.05125 -2.38125 6.1025 -2.0625 5.125 C-1 2 -1 2 0 0 Z " fill="#8E95E7" transform="translate(286,284)"/>
<path d="M0 0 C0.99 0.33 1.98 0.66 3 1 C3 1.66 3 2.32 3 3 C2.34 3 1.68 3 1 3 C1 4.65 1 6.3 1 8 C-5.875 4.25 -5.875 4.25 -7 2 C-6.21625 2.04125 -5.4325 2.0825 -4.625 2.125 C-1.83883881 2.28728734 -1.83883881 2.28728734 0 0 Z " fill="#747FEB" transform="translate(275,433)"/>
<path d="M0 0 C-1.98 0.99 -1.98 0.99 -4 2 C-4 2.66 -4 3.32 -4 4 C-6.5 5.625 -6.5 5.625 -9 7 C-9.6875 5.1875 -9.6875 5.1875 -10 3 C-8.5370808 0.92111481 -7.37490917 0.14059094 -5 -0.75 C-3 -1 -3 -1 0 0 Z " fill="#858DEB" transform="translate(349,392)"/>
<path d="M0 0 C0.33 0.99 0.66 1.98 1 3 C-3.75 7 -3.75 7 -6 7 C-6 7.66 -6 8.32 -6 9 C-7.65 9 -9.3 9 -11 9 C-7.56638098 5.36440339 -4.2026393 2.63886654 0 0 Z " fill="#9197E7" transform="translate(325,378)"/>
<path d="M0 0 C0 0.66 0 1.32 0 2 C-1.4609375 3.2890625 -1.4609375 3.2890625 -3.375 4.625 C-4.00148438 5.07101562 -4.62796875 5.51703125 -5.2734375 5.9765625 C-7 7 -7 7 -9 7 C-9.33 5.68 -9.66 4.36 -10 3 C-3.375 0 -3.375 0 0 0 Z " fill="#7A86E6" transform="translate(470,297)"/>
<path d="M0 0 C0.66 0.33 1.32 0.66 2 1 C1.52269162 2.4589426 1.04308958 3.91713496 0.5625 5.375 C0.29566406 6.18710937 0.02882813 6.99921875 -0.24609375 7.8359375 C-1 10 -1 10 -2 12 C-4.97 11.505 -4.97 11.505 -8 11 C-7.67 10.34 -7.34 9.68 -7 9 C-6.01 9.33 -5.02 9.66 -4 10 C-4 9.34 -4 8.68 -4 8 C-3.34 8 -2.68 8 -2 8 C-1.34 5.36 -0.68 2.72 0 0 Z " fill="#767EE9" transform="translate(288,274)"/>
<path d="M0 0 C0.66 0 1.32 0 2 0 C2 1.98 2 3.96 2 6 C-0.90600261 7.25664978 -2.79604584 8 -6 8 C-6 7.01 -6 6.02 -6 5 C-2.66666667 2 -2.66666667 2 0 2 C0 1.34 0 0.68 0 0 Z " fill="#7B82EA" transform="translate(458,274)"/>
<path d="M0 0 C3.71905926 2.47937284 3.96900369 3.71739996 5 8 C5.15015097 10.69303025 5.09314985 13.29865447 5 16 C3.26453924 13.39680887 2.34824767 11.47732763 1.375 8.5625 C1.11460938 7.80066406 0.85421875 7.03882813 0.5859375 6.25390625 C0 4 0 4 0 0 Z " fill="#8D92EB" transform="translate(6,191)"/>
<path d="M0 0 C-0.25774371 1.41910652 -0.53183165 2.83524899 -0.8125 4.25 C-0.96332031 5.03890625 -1.11414063 5.8278125 -1.26953125 6.640625 C-2 9 -2 9 -5 13 C-5 9.04 -5 5.08 -5 1 C-3 0 -3 0 0 0 Z " fill="#858DE9" transform="translate(295,260)"/>
<path d="M0 0 C1.9375 0.375 1.9375 0.375 4 1 C4.33 1.66 4.66 2.32 5 3 C5.99 3 6.98 3 8 3 C8 2.34 8 1.68 8 1 C8.99 1.33 9.98 1.66 11 2 C11 2.99 11 3.98 11 5 C10.34 5 9.68 5 9 5 C9.33 6.32 9.66 7.64 10 9 C9.34 9 8.68 9 8 9 C8 8.34 8 7.68 8 7 C7.360625 6.731875 6.72125 6.46375 6.0625 6.1875 C4 5 4 5 3 2 C2.01 1.67 1.02 1.34 0 1 C0 0.67 0 0.34 0 0 Z " fill="#8F9AED" transform="translate(43,259)"/>
<path d="M0 0 C1.32 0.66 2.64 1.32 4 2 C4 2.99 4 3.98 4 5 C3.01 5 2.02 5 1 5 C0.71125 5.804375 0.4225 6.60875 0.125 7.4375 C-1 10 -1 10 -3 11 C-2.69217504 9.35328588 -2.37860766 7.70764424 -2.0625 6.0625 C-1.88847656 5.14597656 -1.71445312 4.22945313 -1.53515625 3.28515625 C-1 1 -1 1 0 0 Z " fill="#979BE7" transform="translate(315,122)"/>
<path d="M0 0 C1.02104551 0.97850195 2.0206121 1.97980427 3 3 C3.66 3.33 4.32 3.66 5 4 C5 4.66 5 5.32 5 6 C5.99 6.33 6.98 6.66 8 7 C5.13822943 8.43088528 3.06624227 7.59991697 0 7 C0 6.34 0 5.68 0 5 C-1.32 4.34 -2.64 3.68 -4 3 C-4 2.34 -4 1.68 -4 1 C-2 0 -2 0 0 0 Z " fill="#838AEA" transform="translate(182,336)"/>
<path d="M0 0 C2.64 1.65 5.28 3.3 8 5 C7.67 5.66 7.34 6.32 7 7 C4.36 6.67 1.72 6.34 -1 6 C-0.67 4.02 -0.34 2.04 0 0 Z " fill="#7F88EA" transform="translate(171,329)"/>
<path d="M0 0 C1.32 0 2.64 0 4 0 C4.6875 1.8125 4.6875 1.8125 5 4 C3.6875 5.75 3.6875 5.75 2 7 C1.34 7 0.68 7 0 7 C-0.66 5.35 -1.32 3.7 -2 2 C-1.34 2 -0.68 2 0 2 C0 1.34 0 0.68 0 0 Z " fill="#6D7BEE" transform="translate(496,270)"/>
<path d="M0 0 C0.66 0 1.32 0 2 0 C2.50692692 1.5811292 3.00526443 3.16501383 3.5 4.75 C3.7784375 5.63171875 4.056875 6.5134375 4.34375 7.421875 C5 10 5 10 5 14 C4.01 14.495 4.01 14.495 3 15 C2.49363393 13.25183142 1.99515381 11.50137737 1.5 9.75 C1.2215625 8.77546875 0.943125 7.8009375 0.65625 6.796875 C0 4 0 4 0 0 Z " fill="#848EE8" transform="translate(343,192)"/>
<path d="M0 0 C0.33 0 0.66 0 1 0 C0.85866501 1.77119803 0.71176792 3.54195287 0.5625 5.3125 C0.48128906 6.29863281 0.40007812 7.28476563 0.31640625 8.30078125 C-0.08342254 11.71166639 -0.3538606 13.47134049 -3.0625 15.6875 C-3.701875 16.120625 -4.34125 16.55375 -5 17 C-4.14496558 13.36385363 -3.04324451 9.81691778 -1.9375 6.25 C-1.39416016 4.49429688 -1.39416016 4.49429688 -0.83984375 2.703125 C-0.56269531 1.81109375 -0.28554688 0.9190625 0 0 Z " fill="#8E95E7" transform="translate(308,144)"/>
<path d="M0 0 C0.66 0.33 1.32 0.66 2 1 C0.625 2.5 0.625 2.5 -1 4 C-1.66 4 -2.32 4 -3 4 C-3.33 4.99 -3.66 5.98 -4 7 C-4.66 7 -5.32 7 -6 7 C-6.33 7.66 -6.66 8.32 -7 9 C-7.66 7.35 -8.32 5.7 -9 4 C-8.01 4 -7.02 4 -6 4 C-5.67 3.34 -5.34 2.68 -5 2 C-3.67696283 1.6278958 -2.34262065 1.29369827 -1 1 C-0.67 0.67 -0.34 0.34 0 0 Z " fill="#7F8DEA" transform="translate(315,67)"/>
<path d="M0 0 C2.97 0.495 2.97 0.495 6 1 C4.82255415 4.53233755 4.04394359 4.86308075 0.9375 6.6875 C0.20402344 7.12449219 -0.52945312 7.56148438 -1.28515625 8.01171875 C-1.85105469 8.33785156 -2.41695313 8.66398437 -3 9 C-3 8.01 -3 7.02 -3 6 C-2.01 6 -1.02 6 0 6 C0 4.02 0 2.04 0 0 Z " fill="#838BE8" transform="translate(363,374)"/>
<path d="M0 0 C0.66 0.33 1.32 0.66 2 1 C0.84941444 6.39795989 -0.42421759 11.70987333 -2 17 C-2.33 17 -2.66 17 -3 17 C-3.40214229 10.83381819 -1.96818336 5.82254243 0 0 Z " fill="#8991E8" transform="translate(301,233)"/>
<path d="M0 0 C3.63 0 7.26 0 11 0 C11 0.66 11 1.32 11 2 C9.1128125 2.12375 9.1128125 2.12375 7.1875 2.25 C3.66188788 2.66557143 3.66188788 2.66557143 1 5.0625 C0.67 5.701875 0.34 6.34125 0 7 C0 4.69 0 2.38 0 0 Z " fill="#6870DE" transform="translate(149,215)"/>
<path d="M0 0 C5.67276511 -0.29341888 8.99067246 -0.00559652 14 3 C14 3.33 14 3.66 14 4 C4.58997722 3.03644647 4.58997722 3.03644647 0 2 C0 1.34 0 0.68 0 0 Z " fill="#7E87E3" transform="translate(434,31)"/>
<path d="M0 0 C0.33 0.66 0.66 1.32 1 2 C3.02463255 2.65213292 3.02463255 2.65213292 5 3 C5 3.66 5 4.32 5 5 C5.804375 5.2475 6.60875 5.495 7.4375 5.75 C10 7 10 7 10.8125 9.125 C10.874375 9.74375 10.93625 10.3625 11 11 C8.5 9.625 8.5 9.625 6 8 C6 7.34 6 6.68 6 6 C5.21625 5.731875 4.4325 5.46375 3.625 5.1875 C1 4 1 4 -1 1 C-0.67 0.67 -0.34 0.34 0 0 Z " fill="#8E98E5" transform="translate(94,298)"/>
<path d="M0 0 C0.99 0 1.98 0 3 0 C2.56179109 4.55737263 2.14958831 7.57653445 -1 11 C-2.41687119 6.74938644 -1.19320039 4.28148375 0 0 Z " fill="#7F84E9" transform="translate(212,200)"/>
<path d="M0 0 C1.32 0.33 2.64 0.66 4 1 C4 1.66 4 2.32 4 3 C2.25 4.7265625 2.25 4.7265625 0 6.625 C-0.7425 7.25664063 -1.485 7.88828125 -2.25 8.5390625 C-2.8275 9.02117187 -3.405 9.50328125 -4 10 C-4.33 9.34 -4.66 8.68 -5 8 C-4.67 7.34 -4.34 6.68 -4 6 C-3.34 6 -2.68 6 -2 6 C-2.33 4.68 -2.66 3.36 -3 2 C-2.01 2.33 -1.02 2.66 0 3 C0 2.01 0 1.02 0 0 Z " fill="#8991EA" transform="translate(68,57)"/>
<path d="M0 0 C3.81684226 1.55500981 6.19195732 4.03595495 9 7 C8 8 8 8 5.4375 8.0625 C4.633125 8.041875 3.82875 8.02125 3 8 C3.66 7.67 4.32 7.34 5 7 C4.34 6.67 3.68 6.34 3 6 C3 5.01 3 4.02 3 3 C2.01 2.67 1.02 2.34 0 2 C0 1.34 0 0.68 0 0 Z " fill="#8089E6" transform="translate(249,390)"/>
<path d="M0 0 C0.66 0.33 1.32 0.66 2 1 C0.68 3.31 -0.64 5.62 -2 8 C-2.33 7.34 -2.66 6.68 -3 6 C-4.98 6.66 -6.96 7.32 -9 8 C-6.14723863 5.06799526 -3.34920216 2.35684596 0 0 Z " fill="#858BE8" transform="translate(380,335)"/>
<path d="M0 0 C0.66 0 1.32 0 2 0 C2.02725341 1.7290774 2.04650987 3.45828176 2.0625 5.1875 C2.07410156 6.15042969 2.08570313 7.11335938 2.09765625 8.10546875 C2.00486622 10.85576513 1.62111685 13.32479591 1 16 C0.67 16 0.34 16 0 16 C-0.19441368 13.7089095 -0.38033135 11.41709663 -0.5625 9.125 C-0.71912109 7.21074219 -0.71912109 7.21074219 -0.87890625 5.2578125 C-1 2 -1 2 0 0 Z " fill="#818AE8" transform="translate(28,117)"/>
<path d="M0 0 C-0.66 1.65 -1.32 3.3 -2 5 C-2.66 5 -3.32 5 -4 5 C-4.66 6.32 -5.32 7.64 -6 9 C-6.33 6.69 -6.66 4.38 -7 2 C-4.35261084 0.5393715 -3.10551666 0 0 0 Z " fill="#858DE9" transform="translate(57,72)"/>
<path d="M0 0 C3.72433382 1.2125738 7.37802806 2.50859979 11 4 C10.01 4.66 9.02 5.32 8 6 C5.51953125 5.3203125 5.51953125 5.3203125 2.8125 4.125 C1.91144531 3.73570313 1.01039063 3.34640625 0.08203125 2.9453125 C-0.60503906 2.63335938 -1.29210937 2.32140625 -2 2 C-1.34 1.34 -0.68 0.68 0 0 Z " fill="#7E87EA" transform="translate(469,18)"/>
<path d="M0 0 C1.02881506 3.08644518 1.06240986 4.86082458 0.8125 8.0625 C0.72935547 9.37927734 0.72935547 9.37927734 0.64453125 10.72265625 C0 13 0 13 -2.05078125 14.30859375 C-2.69402344 14.53675781 -3.33726562 14.76492187 -4 15 C-3.52396226 12.87429688 -3.04407402 10.74945573 -2.5625 8.625 C-2.29566406 7.44164062 -2.02882813 6.25828125 -1.75390625 5.0390625 C-1 2 -1 2 0 0 Z " fill="#8F95EA" transform="translate(277,239)"/>
<path d="M0 0 C1.50560497 2.85410334 2.63216796 5.68124642 3.625 8.75 C3.88539063 9.54921875 4.14578125 10.3484375 4.4140625 11.171875 C4.60742188 11.77515625 4.80078125 12.3784375 5 13 C4.01 13.495 4.01 13.495 3 14 C2.67 12.35 2.34 10.7 2 9 C1.01 8.67 0.02 8.34 -1 8 C-0.67 5.36 -0.34 2.72 0 0 Z " fill="#8B8FEA" transform="translate(325,141)"/>
<path d="M0 0 C0.66 0 1.32 0 2 0 C2.103125 0.639375 2.20625 1.27875 2.3125 1.9375 C2.539375 2.618125 2.76625 3.29875 3 4 C3.99 4.33 4.98 4.66 6 5 C6.33 7.31 6.66 9.62 7 12 C5.66104368 10.33784732 4.32869858 8.67036393 3 7 C2.4225 6.29875 1.845 5.5975 1.25 4.875 C0 3 0 3 0 0 Z " fill="#9397E5" transform="translate(254,79)"/>
<path d="M0 0 C4.43090471 1.20842856 6.98112756 2.51668565 10 6 C9.01 6.495 9.01 6.495 8 7 C5.6171875 6.00390625 5.6171875 6.00390625 2.875 4.5625 C1.96492188 4.08941406 1.05484375 3.61632813 0.1171875 3.12890625 C-0.58148438 2.75636719 -1.28015625 2.38382813 -2 2 C-1.34 1.34 -0.68 0.68 0 0 Z " fill="#878DE6" transform="translate(457,37)"/>
<path d="M0 0 C0.66 1.32 1.32 2.64 2 4 C1.01 4.66 0.02 5.32 -1 6 C-1 5.34 -1 4.68 -1 4 C-1.66 4 -2.32 4 -3 4 C-3 4.66 -3 5.32 -3 6 C-4.32 5.67 -5.64 5.34 -7 5 C-4.69 3.35 -2.38 1.7 0 0 Z " fill="#7B85E7" transform="translate(355,355)"/>
<path d="M0 0 C0.33 0.66 0.66 1.32 1 2 C1.66 2 2.32 2 3 2 C3 2.66 3 3.32 3 4 C3.99 4.33 4.98 4.66 6 5 C6 5.66 6 6.32 6 7 C6.66 7 7.32 7 8 7 C7.67 7.66 7.34 8.32 7 9 C6.34 9 5.68 9 5 9 C4.67 8.01 4.34 7.02 4 6 C0.49705129 4.28432339 0.49705129 4.28432339 -3 3 C-3 2.34 -3 1.68 -3 1 C-2.01 0.67 -1.02 0.34 0 0 Z " fill="#878FE8" transform="translate(54,234)"/>
<path d="M0 0 C2.03529587 2.03529587 2.6384272 3.23417382 3.625 5.875 C3.88539062 6.55304688 4.14578125 7.23109375 4.4140625 7.9296875 C5 10 5 10 5 14 C4.34 14 3.68 14 3 14 C2.49307308 12.4188708 1.99473557 10.83498617 1.5 9.25 C1.2215625 8.36828125 0.943125 7.4865625 0.65625 6.578125 C0 4 0 4 0 0 Z " fill="#8A90E5" transform="translate(31,190)"/>
<path d="M0 0 C0.33 0.66 0.66 1.32 1 2 C0.22265625 3.9453125 0.22265625 3.9453125 -0.9375 6.125 C-1.31777344 6.84945312 -1.69804687 7.57390625 -2.08984375 8.3203125 C-2.54037109 9.15175781 -2.54037109 9.15175781 -3 10 C-3.66 10 -4.32 10 -5 10 C-5.66 8.35 -6.32 6.7 -7 5 C-6.34 5 -5.68 5 -5 5 C-5 5.66 -5 6.32 -5 7 C-4.34 7 -3.68 7 -3 7 C-3.061875 6.21625 -3.12375 5.4325 -3.1875 4.625 C-3.125625 3.75875 -3.06375 2.8925 -3 2 C-2.01 1.34 -1.02 0.68 0 0 Z " fill="#9EA6E9" transform="translate(284,119)"/>
<path d="M0 0 C0.99 0.495 0.99 0.495 2 1 C3.37342831 1.0689472 4.75002102 1.08467708 6.125 1.0625 C7.40375 1.041875 8.6825 1.02125 10 1 C10 1.66 10 2.32 10 3 C9.34 3 8.68 3 8 3 C8 3.66 8 4.32 8 5 C3.48279689 5.36625971 3.48279689 5.36625971 1.1875 3.625 C0 2 0 2 0 0 Z " fill="#747EE3" transform="translate(274,410)"/>
<path d="M0 0 C0.95904856 3.83619425 0.91892116 5.32431536 0 9 C-1.65 9 -3.3 9 -5 9 C-3.35 6.03 -1.7 3.06 0 0 Z " fill="#7E88E9" transform="translate(517,217)"/>
<path d="M0 0 C-0.59927826 3.35595828 -1.84622436 5.37801226 -4 8 C-5.0625 5.625 -5.0625 5.625 -6 3 C-4.60722783 0.21445565 -3.01148006 0 0 0 Z " fill="#7C82EC" transform="translate(543,220)"/>
<path d="M0 0 C0.66 0 1.32 0 2 0 C1.88512252 1.58409994 1.75765492 3.16728963 1.625 4.75 C1.52058594 6.07257813 1.52058594 6.07257813 1.4140625 7.421875 C1.00149945 9.99066382 0.28839043 11.75841015 -1 14 C-1.18451025 4.58997722 -1.18451025 4.58997722 0 0 Z " fill="#919AE4" transform="translate(3,130)"/>
<path d="M0 0 C2.31 0 4.62 0 7 0 C3.80009492 2.74277578 0.99500618 4.6302836 -3 6 C-2.01 4.02 -1.02 2.04 0 0 Z " fill="#8C91EC" transform="translate(342,43)"/>
<path d="M0 0 C0.78375 0.04125 1.5675 0.0825 2.375 0.125 C-2.25 5 -2.25 5 -5.625 6.125 C-4.86443086 2.32215429 -4.27658992 0.20364714 0 0 Z " fill="#888EEC" transform="translate(390.625,356.875)"/>
<path d="M0 0 C0.99 0 1.98 0 3 0 C3.33 0.66 3.66 1.32 4 2 C4.99 2.66 5.98 3.32 7 4 C5.625 5.5 5.625 5.5 4 7 C3.34 7 2.68 7 2 7 C0.5393715 4.35261084 0 3.10551666 0 0 Z " fill="#7581E7" transform="translate(489,274)"/>
<path d="M0 0 C0.33 0.66 0.66 1.32 1 2 C0.34 2 -0.32 2 -1 2 C-1.061875 2.61875 -1.12375 3.2375 -1.1875 3.875 C-2 6 -2 6 -4.375 7.25 C-7 8 -7 8 -10 8 C-4.25 3 -4.25 3 -2 3 C-2 2.34 -2 1.68 -2 1 C-1.34 0.67 -0.68 0.34 0 0 Z " fill="#9BA2E6" transform="translate(487,252)"/>
<path d="M0 0 C0.33 0.66 0.66 1.32 1 2 C1.66 2.33 2.32 2.66 3 3 C1.6875 5 1.6875 5 0 7 C-0.99 7 -1.98 7 -3 7 C-3.33 7.66 -3.66 8.32 -4 9 C-3.46930939 5.17902761 -2.50298434 2.93828597 0 0 Z " fill="#777FE7" transform="translate(40,54)"/>
<path d="M0 0 C1 2 1 2 0.4375 4.5625 C-1 7 -1 7 -4.125 7.8125 C-5.548125 7.9053125 -5.548125 7.9053125 -7 8 C-6.02133662 6.85373678 -5.04205413 5.70800212 -4.0625 4.5625 C-3.51722656 3.92441406 -2.97195313 3.28632812 -2.41015625 2.62890625 C-1.63204305 1.73008851 -0.84063472 0.84063472 0 0 Z " fill="#96A0E7" transform="translate(305,43)"/>
<path d="M0 0 C0.66 0.33 1.32 0.66 2 1 C2 1.66 2 2.32 2 3 C2.66 3.33 3.32 3.66 4 4 C2.68 4.33 1.36 4.66 0 5 C0 5.66 0 6.32 0 7 C-0.99 7 -1.98 7 -3 7 C-2.38722388 4.03824877 -1.74627478 2.61941217 0 0 Z " fill="#7D87ED" transform="translate(372,368)"/>
<path d="M0 0 C0 0.66 0 1.32 0 2 C-0.66 2 -1.32 2 -2 2 C-2 2.66 -2 3.32 -2 4 C-3.98 4.99 -3.98 4.99 -6 6 C-6 5.34 -6 4.68 -6 4 C-6.66 4 -7.32 4 -8 4 C-8 3.34 -8 2.68 -8 2 C-2.25 0 -2.25 0 0 0 Z " fill="#7D87EA" transform="translate(490,281)"/>
<path d="M0 0 C0.66 0 1.32 0 2 0 C2 1.98 2 3.96 2 6 C0.02 6 -1.96 6 -4 6 C-3.67 4.68 -3.34 3.36 -3 2 C-2.34 2 -1.68 2 -1 2 C-0.67 1.34 -0.34 0.68 0 0 Z " fill="#707BF3" transform="translate(212,208)"/>
<path d="M0 0 C3.35693737 2.23795825 3.91970563 3.2189697 5 7 C4.625 9.3125 4.625 9.3125 4 11 C0.85041169 7.57653445 0.43820891 4.55737263 0 0 Z " fill="#7F88E1" transform="translate(318,126)"/>
<path d="M0 0 C1.65 0.99 3.3 1.98 5 3 C2.60490662 5.89932357 0.68754757 6.50168276 -3 7 C-2.67 6.01 -2.34 5.02 -2 4 C-1.01 4 -0.02 4 1 4 C1 3.34 1 2.68 1 2 C0.34 1.67 -0.32 1.34 -1 1 C-0.67 0.67 -0.34 0.34 0 0 Z " fill="#7985E7" transform="translate(101,35)"/>
<path d="M0 0 C1.31611677 0.95336021 2.62778961 1.91285774 3.9375 2.875 C4.66839844 3.40867187 5.39929688 3.94234375 6.15234375 4.4921875 C8 6 8 6 9 8 C5.41209425 7.70100785 4.21833224 7.23013399 1.6875 4.5625 C0 2 0 2 0 0 Z " fill="#9199E7" transform="translate(262,399)"/>
<path d="M0 0 C2.5 1.375 2.5 1.375 5 3 C5 3.66 5 4.32 5 5 C6.32 5.66 7.64 6.32 9 7 C8.34 7.66 7.68 8.32 7 9 C7 8.34 7 7.68 7 7 C5.02 6.34 3.04 5.68 1 5 C0.67 3.35 0.34 1.7 0 0 Z " fill="#969BE7" transform="translate(240,382)"/>
<path d="M0 0 C2.99693138 0.99897713 4.02709413 1.65130253 6 4 C6 4.66 6 5.32 6 6 C6.99 6.33 7.98 6.66 9 7 C7.125 7.625 7.125 7.625 5 8 C3.09276551 6.09276551 1.52626646 4.22002394 0 2 C0 1.34 0 0.68 0 0 Z " fill="#9298ED" transform="translate(62,243)"/>
<path d="M0 0 C2.45823172 3.68734758 3.01242616 6.69699971 4 11 C2 11 2 11 0.3125 9.4375 C-1.52326619 6.02821993 -0.78222319 3.69778233 0 0 Z " fill="#8A91E6" transform="translate(333,163)"/>
<path d="M0 0 C1.11375 0.598125 2.2275 1.19625 3.375 1.8125 C4.00148438 2.14894531 4.62796875 2.48539063 5.2734375 2.83203125 C7 4 7 4 9 7 C8.01 7.495 8.01 7.495 7 8 C5.66666667 6.66666667 4.33333333 5.33333333 3 4 C0.42938689 3.35232207 0.42938689 3.35232207 -2 3 C-1.34 2.01 -0.68 1.02 0 0 Z " fill="#8A90EB" transform="translate(497,34)"/>
<path d="M0 0 C0 0.66 0 1.32 0 2 C-4.39436211 2.85743651 -8.52572076 3.08948558 -13 3 C-8.55314722 0.61775744 -5.04771183 -0.14021422 0 0 Z " fill="#9298E9" transform="translate(128,6)"/>
<path d="M0 0 C0.33 1.32 0.66 2.64 1 4 C0.01 4 -0.98 4 -2 4 C-2 4.66 -2 5.32 -2 6 C-3.32 6 -4.64 6 -6 6 C-6 5.34 -6 4.68 -6 4 C-4.03852126 2.61061923 -2.03833424 1.2739589 0 0 Z " fill="#9194EA" transform="translate(370,343)"/>
<path d="M0 0 C2 1 4 2 6 3 C6 3.66 6 4.32 6 5 C6.99 5.33 7.98 5.66 9 6 C6 7 6 7 3 6 C3 5.01 3 4.02 3 3 C2.34 3 1.68 3 1 3 C0.67 2.01 0.34 1.02 0 0 Z " fill="#98A0E8" transform="translate(114,285)"/>
<path d="M0 0 C3.37503669 1.1858237 5.64722731 2.27573689 8 5 C6.125 5.625 6.125 5.625 4 6 C3.34 5.34 2.68 4.68 2 4 C1.34 3.67 0.68 3.34 0 3 C0 2.01 0 1.02 0 0 Z " fill="#7884E6" transform="translate(82,261)"/>
<path d="M0 0 C3.32310483 1.16757737 5.83361132 2.14948857 8 5 C8 5.99 8 6.98 8 8 C7.34 8 6.68 8 6 8 C4.4921875 6.25 4.4921875 6.25 2.875 4 C2.33617187 3.2575 1.79734375 2.515 1.2421875 1.75 C0.62730469 0.88375 0.62730469 0.88375 0 0 Z " fill="#898EEA" transform="translate(35,250)"/>
<path d="M0 0 C0.66 0.66 1.32 1.32 2 2 C1.625 4.125 1.625 4.125 1 6 C-0.98 6.33 -2.96 6.66 -5 7 C-3.35 4.69 -1.7 2.38 0 0 Z " fill="#8891EB" transform="translate(511,226)"/>
<path d="M0 0 C1.27351308 2.54702616 0.80191925 3.4282945 0.0625 6.125 C-0.13214844 6.84945312 -0.32679687 7.57390625 -0.52734375 8.3203125 C-0.68332031 8.87460938 -0.83929687 9.42890625 -1 10 C-1.99 10 -2.98 10 -4 10 C-3.43454163 6.04179141 -2.19097652 3.3340947 0 0 Z " fill="#9097E6" transform="translate(22,79)"/>
<path d="M0 0 C1.65 0 3.3 0 5 0 C5.66 1.32 6.32 2.64 7 4 C5.35 4 3.7 4 2 4 C1.34 2.68 0.68 1.36 0 0 Z " fill="#686FE8" transform="translate(466,41)"/>
<path d="M0 0 C2.96175123 0.61277612 4.38058783 1.25372522 7 3 C6.67 3.33 6.34 3.66 6 4 C3.66055264 3.71269945 1.3260857 3.38063221 -1 3 C-0.67 2.01 -0.34 1.02 0 0 Z " fill="#6E76E6" transform="translate(451,34)"/>
<path d="M0 0 C-4.30769231 3.93846154 -4.30769231 3.93846154 -7.8125 4.25 C-8.534375 4.1675 -9.25625 4.085 -10 4 C-6.58908673 0.88145073 -4.68377325 -0.53528837 0 0 Z " fill="#727BE8" transform="translate(319,387)"/>
<path d="M0 0 C2.97 0.495 2.97 0.495 6 1 C6.103125 1.639375 6.20625 2.27875 6.3125 2.9375 C6.539375 3.618125 6.76625 4.29875 7 5 C7.99 5.33 8.98 5.66 10 6 C9.01 6.495 9.01 6.495 8 7 C7.34 6.67 6.68 6.34 6 6 C6 5.34 6 4.68 6 4 C5.38125 3.71125 4.7625 3.4225 4.125 3.125 C2 2 2 2 0 0 Z " fill="#989DEA" transform="translate(109,312)"/>
<path d="M0 0 C4.75 0.75 4.75 0.75 7 3 C6.01 3.33 5.02 3.66 4 4 C3.67 4.66 3.34 5.32 3 6 C2.01 5.34 1.02 4.68 0 4 C0 2.68 0 1.36 0 0 Z " fill="#7A82F1" transform="translate(128,298)"/>
<path d="M0 0 C0.33 0.99 0.66 1.98 1 3 C1.66 3.33 2.32 3.66 3 4 C3 6.31 3 8.62 3 11 C0.81024227 7.71536341 0.00193437 4.79303725 -1 1 C-0.67 0.67 -0.34 0.34 0 0 Z " fill="#8C9DEB" transform="translate(252,274)"/>
<path d="M0 0 C-0.33 1.65 -0.66 3.3 -1 5 C-3.97 4.505 -3.97 4.505 -7 4 C-3.375 0 -3.375 0 0 0 Z " fill="#7481E9" transform="translate(476,263)"/>
<path d="M0 0 C0 0.99 0 1.98 0 3 C-0.66 3 -1.32 3 -2 3 C-2 3.99 -2 4.98 -2 6 C-2.66 6 -3.32 6 -4 6 C-4.33 6.66 -4.66 7.32 -5 8 C-5.33 6.35 -5.66 4.7 -6 3 C-5.01 3 -4.02 3 -3 3 C-3 2.34 -3 1.68 -3 1 C-2.01 0.67 -1.02 0.34 0 0 Z " fill="#9199ED" transform="translate(528,244)"/>
<path d="M0 0 C0.66 1.32 1.32 2.64 2 4 C-0.31 4.66 -2.62 5.32 -5 6 C-3.63016497 2.83884224 -3.0109362 2.0072908 0 0 Z " fill="#747FE4" transform="translate(508,232)"/>
<path d="M0 0 C0.66 0 1.32 0 2 0 C2.125 2.875 2.125 2.875 2 6 C0 8 0 8 -2 9 C-1.34 6.03 -0.68 3.06 0 0 Z " fill="#8E94E9" transform="translate(301,165)"/>
<path d="M0 0 C0 0.99 0 1.98 0 3 C-2.3125 4.75 -2.3125 4.75 -5 6 C-5.99 5.67 -6.98 5.34 -8 5 C-7.34 5 -6.68 5 -6 5 C-6 4.34 -6 3.68 -6 3 C-2.53846154 0 -2.53846154 0 0 0 Z " fill="#919AE6" transform="translate(299,399)"/>
<path d="M0 0 C0.33 1.32 0.66 2.64 1 4 C-3.625 6.125 -3.625 6.125 -7 5 C-4.69 3.35 -2.38 1.7 0 0 Z " fill="#8B92E9" transform="translate(347,361)"/>
<path d="M0 0 C0.66 0 1.32 0 2 0 C2 0.66 2 1.32 2 2 C3.32 2.33 4.64 2.66 6 3 C6 3.66 6 4.32 6 5 C6.66 5.33 7.32 5.66 8 6 C5.23723823 5.47731534 2.6739124 4.89130413 0 4 C0 2.68 0 1.36 0 0 Z " fill="#949AEA" transform="translate(145,309)"/>
<path d="M0 0 C-0.33 1.32 -0.66 2.64 -1 4 C-3.31 4.33 -5.62 4.66 -8 5 C-3.16129032 0 -3.16129032 0 0 0 Z " fill="#858DE7" transform="translate(451,282)"/>
<path d="M0 0 C0.66 1.32 1.32 2.64 2 4 C1.01 4.33 0.02 4.66 -1 5 C-1.66 4.67 -2.32 4.34 -3 4 C-3 4.66 -3 5.32 -3 6 C-3.99 6.33 -4.98 6.66 -6 7 C-6 6.34 -6 5.68 -6 5 C-5.34 5 -4.68 5 -4 5 C-4 4.34 -4 3.68 -4 3 C-3.01 3 -2.02 3 -1 3 C-0.67 2.01 -0.34 1.02 0 0 Z " fill="#626DE9" transform="translate(492,249)"/>
<path d="M0 0 C2.89932357 2.39509338 3.50168276 4.31245243 4 8 C3.01 8.495 3.01 8.495 2 9 C0.4375 6.1875 0.4375 6.1875 -1 3 C-0.67 2.01 -0.34 1.02 0 0 Z " fill="#848BE6" transform="translate(255,229)"/>
<path d="M0 0 C2.96052484 3.36423277 3.92289822 6.69159287 5 11 C3.0625 10 3.0625 10 1 8 C0.33450549 5.30075428 0.18319237 2.79368363 0 0 Z " fill="#A3A9EC" transform="translate(238,190)"/>
<path d="M0 0 C0.66 0 1.32 0 2 0 C2.1875 3.375 2.1875 3.375 2 7 C1.01 7.66 0.02 8.32 -1 9 C-0.67 6.03 -0.34 3.06 0 0 Z " fill="#8086E2" transform="translate(5,120)"/>
<path d="M0 0 C2.31 0.33 4.62 0.66 7 1 C7.33 2.65 7.66 4.3 8 6 C7.34 6 6.68 6 6 6 C6 5.34 6 4.68 6 4 C5.38125 3.71125 4.7625 3.4225 4.125 3.125 C2 2 2 2 0 0 Z " fill="#868FEA" transform="translate(479,51)"/>
<path d="M0 0 C-2.95070119 1.96713413 -4.53581611 2.65358161 -8 3 C-8.99 2.34 -9.98 1.68 -11 1 C-3.57142857 -1.42857143 -3.57142857 -1.42857143 0 0 Z " fill="#9EA2EB" transform="translate(372,9)"/>
<path d="M0 0 C-1.04874998 2.62187494 -1.64931313 3.79371361 -4.125 5.25 C-4.74375 5.4975 -5.3625 5.745 -6 6 C-6.33 5.34 -6.66 4.68 -7 4 C-6.34 4 -5.68 4 -5 4 C-5 3.01 -5 2.02 -5 1 C-2 0 -2 0 0 0 Z " fill="#828BE6" transform="translate(304,425)"/>
<path d="M0 0 C0.78375 0.04125 1.5675 0.0825 2.375 0.125 C2.375 0.785 2.375 1.445 2.375 2.125 C1.735625 2.24875 1.09625 2.3725 0.4375 2.5 C-0.243125 2.70625 -0.92375 2.9125 -1.625 3.125 C-1.955 3.785 -2.285 4.445 -2.625 5.125 C-2.625 4.465 -2.625 3.805 -2.625 3.125 C-3.285 2.795 -3.945 2.465 -4.625 2.125 C-2.625 0.125 -2.625 0.125 0 0 Z " fill="#8086EF" transform="translate(405.625,344.875)"/>
<path d="M0 0 C0.33 0 0.66 0 1 0 C1 3.3 1 6.6 1 10 C0.01 10 -0.98 10 -2 10 C-1.34 6.7 -0.68 3.4 0 0 Z " fill="#8C94EB" transform="translate(284,217)"/>
<path d="M0 0 C2 4 2 4 1.125 7.25 C0.75375 8.1575 0.3825 9.065 0 10 C-0.66 10 -1.32 10 -2 10 C-1.34 6.7 -0.68 3.4 0 0 Z " fill="#8C92E7" transform="translate(311,133)"/>
<path d="M0 0 C1.41377341 2.63904371 2.37240135 5.07120629 3 8 C2.34 8 1.68 8 1 8 C-0.625 6 -0.625 6 -2 4 C-1.34 2.68 -0.68 1.36 0 0 Z " fill="#8087E7" transform="translate(547,97)"/>
<path d="M0 0 C2.31 1.98 4.62 3.96 7 6 C6.34 6.66 5.68 7.32 5 8 C0 2.25 0 2.25 0 0 Z " fill="#9196EA" transform="translate(249,38)"/>
<path d="M0 0 C0.66 0.33 1.32 0.66 2 1 C0.68 2.65 -0.64 4.3 -2 6 C-3.32 5.67 -4.64 5.34 -6 5 C-4.02 3.35 -2.04 1.7 0 0 Z " fill="#969CE7" transform="translate(403,317)"/>
<path d="M0 0 C0 0.66 0 1.32 0 2 C-1.98 2.99 -3.96 3.98 -6 5 C-6 3.68 -6 2.36 -6 1 C-3 0 -3 0 0 0 Z " fill="#858FE8" transform="translate(461,304)"/>
<path d="M0 0 C2.31 1.65 4.62 3.3 7 5 C5.68 5.33 4.36 5.66 3 6 C0 2.25 0 2.25 0 0 Z " fill="#979DED" transform="translate(103,276)"/>
<path d="M0 0 C0.99 0 1.98 0 3 0 C2.34 2.97 1.68 5.94 1 9 C0.67 9 0.34 9 0 9 C0 6.03 0 3.06 0 0 Z " fill="#8992EA" transform="translate(295,250)"/>
<path d="M0 0 C0.309375 0.639375 0.61875 1.27875 0.9375 1.9375 C1.8345163 3.93610821 1.8345163 3.93610821 3 5 C3.04063832 6.66617115 3.042721 8.33388095 3 10 C0.51280729 7.08025204 -0.58572305 4.83206182 -1 1 C-0.67 0.67 -0.34 0.34 0 0 Z " fill="#8A93E9" transform="translate(238,243)"/>
<path d="M0 0 C1.32 0.33 2.64 0.66 4 1 C4 3.31 4 5.62 4 8 C1.53721199 5.53721199 1.00228745 3.29323018 0 0 Z " fill="#8C92E9" transform="translate(233,236)"/>
<path d="M0 0 C0.99 0 1.98 0 3 0 C3.33 1.32 3.66 2.64 4 4 C2.35 4.33 0.7 4.66 -1 5 C-0.67 3.35 -0.34 1.7 0 0 Z " fill="#7B84EB" transform="translate(280,230)"/>
<path d="M0 0 C-0.33 0.99 -0.66 1.98 -1 3 C-2.84765625 3.73046875 -2.84765625 3.73046875 -5.0625 4.1875 C-5.79597656 4.34605469 -6.52945312 4.50460938 -7.28515625 4.66796875 C-8.13400391 4.83232422 -8.13400391 4.83232422 -9 5 C-4.22727273 0 -4.22727273 0 0 0 Z " fill="#959AE8" transform="translate(336,22)"/>
<path d="" fill="#FFFFFF" transform="translate(0,0)"/>
<path d="" fill="#FFFFFF" transform="translate(0,0)"/>
<path d="" fill="#FFFFFF" transform="translate(0,0)"/>
<path d="" fill="#FFFFFF" transform="translate(0,0)"/>
<path d="" fill="#FFFFFF" transform="translate(0,0)"/>
<path d="" fill="#FFFFFF" transform="translate(0,0)"/>
<path d="" fill="#FFFFFF" transform="translate(0,0)"/>
<path d="" fill="#FFFFFF" transform="translate(0,0)"/>
<path d="" fill="#FFFFFF" transform="translate(0,0)"/>
<path d="" fill="#FFFFFF" transform="translate(0,0)"/>
<path d="" fill="#FFFFFF" transform="translate(0,0)"/>
<path d="" fill="#FFFFFF" transform="translate(0,0)"/>
<path d="" fill="#FFFFFF" transform="translate(0,0)"/>
<path d="" fill="#FFFFFF" transform="translate(0,0)"/>
<path d="" fill="#FFFFFF" transform="translate(0,0)"/>
<path d="" fill="#FFFFFF" transform="translate(0,0)"/>
<path d="" fill="#FFFFFF" transform="translate(0,0)"/>
<path d="" fill="#FFFFFF" transform="translate(0,0)"/>
<path d="" fill="#FFFFFF" transform="translate(0,0)"/>
<path d="" fill="#FFFFFF" transform="translate(0,0)"/>
<path d="" fill="#FFFFFF" transform="translate(0,0)"/>
<path d="" fill="#FFFFFF" transform="translate(0,0)"/>
<path d="" fill="#FFFFFF" transform="translate(0,0)"/>
<path d="" fill="#FFFFFF" transform="translate(0,0)"/>
<path d="" fill="#FFFFFF" transform="translate(0,0)"/>
<path d="" fill="#FFFFFF" transform="translate(0,0)"/>
<path d="" fill="#FFFFFF" transform="translate(0,0)"/>
<path d="" fill="#FFFFFF" transform="translate(0,0)"/>
<path d="" fill="#FFFFFF" transform="translate(0,0)"/>
<path d="" fill="#FFFFFF" transform="translate(0,0)"/>
<path d="" fill="#FFFFFF" transform="translate(0,0)"/>
<path d="" fill="#FFFFFF" transform="translate(0,0)"/>
<path d="" fill="#FFFFFF" transform="translate(0,0)"/>
<path d="" fill="#FFFFFF" transform="translate(0,0)"/>
<path d="" fill="#FFFFFF" transform="translate(0,0)"/>
<path d="" fill="#FFFFFF" transform="translate(0,0)"/>
<path d="" fill="#FFFFFF" transform="translate(0,0)"/>
<path d="" fill="#FFFFFF" transform="translate(0,0)"/>
<path d="" fill="#FFFFFF" transform="translate(0,0)"/>
<path d="" fill="#FFFFFF" transform="translate(0,0)"/>
<path d="" fill="#FFFFFF" transform="translate(0,0)"/>
<path d="" fill="#FFFFFF" transform="translate(0,0)"/>
<path d="" fill="#FFFFFF" transform="translate(0,0)"/>
<path d="" fill="#FFFFFF" transform="translate(0,0)"/>
<path d="" fill="#FFFFFF" transform="translate(0,0)"/>
<path d="" fill="#FFFFFF" transform="translate(0,0)"/>
<path d="" fill="#FFFFFF" transform="translate(0,0)"/>
<path d="" fill="#FFFFFF" transform="translate(0,0)"/>
<path d="" fill="#FFFFFF" transform="translate(0,0)"/>
<path d="" fill="#FFFFFF" transform="translate(0,0)"/>
<path d="" fill="#FFFFFF" transform="translate(0,0)"/>
<path d="" fill="#FFFFFF" transform="translate(0,0)"/>
<path d="" fill="#FFFFFF" transform="translate(0,0)"/>
<path d="" fill="#FFFFFF" transform="translate(0,0)"/>
</svg>
