<?xml version="1.0" encoding="UTF-8"?>
<svg version="1.1" xmlns="http://www.w3.org/2000/svg" width="2414" height="656">
<path d="M0 0 C796.62 0 1593.24 0 2414 0 C2414 216.48 2414 432.96 2414 656 C1617.38 656 820.76 656 0 656 C0 439.52 0 223.04 0 0 Z " fill="#FEFEFE" transform="translate(0,0)"/>
<path d="M0 0 C0 0.66 0 1.32 0 2 C1.02480469 2.08894531 1.02480469 2.08894531 2.0703125 2.1796875 C6.08848 3.3047744 8.67754937 5.51207591 11.875 8.125 C12.49560303 8.62273926 13.11620605 9.12047852 13.75561523 9.63330078 C18.11771841 13.1727442 22.17145822 16.88623734 26 21 C26.78375 21.763125 27.5675 22.52625 28.375 23.3125 C48.3616301 43.77500225 59.63179933 68.59937406 70 95 C70.34667725 94.18023682 70.69335449 93.36047363 71.05053711 92.51586914 C82.14618591 66.36432923 93.05951878 42.66558963 113 22 C113.66515625 21.28328125 114.3303125 20.5665625 115.015625 19.828125 C125.10782276 9.22707693 137.09601528 1.68389558 150 -5 C150.61069336 -5.32097656 151.22138672 -5.64195313 151.85058594 -5.97265625 C185.1495975 -23.26426682 225.406853 -25.95363923 261.12646484 -14.97119141 C272.75833355 -11.21745875 283.32747347 -5.87572157 294 0 C294 0.66 294 1.32 294 2 C295.02867187 2.09087891 295.02867187 2.09087891 296.078125 2.18359375 C299.99153192 3.27704568 302.66610204 5.52898252 305.75 8.0625 C306.36689697 8.55983643 306.98379395 9.05717285 307.61938477 9.56958008 C315.38158893 15.8675618 322.6796057 22.22512165 329 30 C329.76054688 30.92296875 330.52109375 31.8459375 331.3046875 32.796875 C356.10320996 63.5221807 367.33271118 102.52532766 363.74511719 141.78955078 C362.00145742 156.27596247 358.99400723 170.8111865 352.0625 183.75 C350.85469305 186.21081546 350.85469305 186.21081546 349.6640625 189.76171875 C348.05361166 194.11840146 345.86855943 197.90691919 343.375 201.8125 C342.71467773 202.85506958 342.71467773 202.85506958 342.04101562 203.91870117 C338.12431178 209.99675684 333.77910403 215.57218597 329 221 C328.20851563 221.92425781 327.41703125 222.84851563 326.6015625 223.80078125 C320.90616886 230.29568598 314.79581244 235.69296091 308 241 C306.8419792 241.93270151 305.685816 242.86771278 304.53125 243.8046875 C297.46188912 249.53108611 290.28141843 255.07531134 282.97949219 260.50146484 C278.43296381 263.8920775 273.97569707 267.37539865 269.5625 270.9375 C263.62959199 275.72600903 257.61150521 280.38817744 251.54492188 285.00585938 C246.36087528 288.95360217 241.2032572 292.93355521 236.0625 296.9375 C234.94875 297.8049585 234.94875 297.8049585 233.8125 298.68994141 C232.30420616 299.86519718 230.79606875 301.04065375 229.28808594 302.21630859 C225.42277659 305.22953417 221.55548127 308.24020532 217.6875 311.25 C216.93218994 311.83773193 216.17687988 312.42546387 215.39868164 313.03100586 C210.0824795 317.16492467 204.74805827 321.27421789 199.40625 325.375 C195.25758632 328.56627975 191.12967519 331.784213 187 335 C181.84442648 339.01465625 176.68315772 343.02101023 171.5 347 C163.30301626 353.29429617 155.15396006 359.65013322 147 366 C137.82011989 373.14879829 128.63545618 380.28995283 119.40625 387.375 C114.4743577 391.16876331 109.5701915 394.99830911 104.66113281 398.8215332 C100.20244781 402.29228938 95.73394792 405.74945819 91.25 409.1875 C84.45590677 414.40237871 77.7250793 419.69656415 71 425 C67.38292594 423.38860208 64.4902873 421.18105107 61.375 418.75 C60.81941406 418.31816406 60.26382812 417.88632812 59.69140625 417.44140625 C58.46204084 416.48523315 57.23391239 415.52746817 56.00683594 414.56835938 C53.11416358 412.30771129 50.21517001 410.055215 47.31689453 407.80175781 C45.76283246 406.59322482 44.20912565 405.38423488 42.65576172 404.17480469 C38.28104017 400.76926644 33.89760242 397.37593721 29.5 394 C20.5147248 387.10039094 11.58557012 380.12848881 2.64746094 373.16796875 C-8.40698713 364.55907251 -8.40698713 364.55907251 -19.5 356 C-28.4852752 349.10039094 -37.41442988 342.12848881 -46.35253906 335.16796875 C-54.74861519 328.6302988 -63.1529271 322.10482364 -71.59375 315.625 C-76.52854536 311.82900357 -81.43545131 307.99701961 -86.34765625 304.171875 C-90.72144077 300.76757571 -95.10358707 297.37502406 -99.5 294 C-108.4852752 287.10039094 -117.41442988 280.12848881 -126.35253906 273.16796875 C-128.67229048 271.36167627 -130.99229029 269.55570376 -133.3125 267.75 C-134.0645874 267.16468506 -134.8166748 266.57937012 -135.59155273 265.97631836 C-139.96668255 262.57386637 -144.35259905 259.18609928 -148.75 255.8125 C-150.83410805 254.20933996 -152.91742786 252.60515474 -155 251 C-155.8660083 250.33339355 -155.8660083 250.33339355 -156.74951172 249.65332031 C-164.44288966 243.7187254 -171.93147624 237.68089504 -179 231 C-179.88171875 230.18273437 -180.7634375 229.36546875 -181.671875 228.5234375 C-208.00015261 203.31076488 -222.57151382 167.39009371 -224.16796875 131.19140625 C-224.35068691 97.24237192 -215.39164483 65.48594084 -195 38 C-194.38640625 37.16082031 -193.7728125 36.32164062 -193.140625 35.45703125 C-169.98780335 5.13079264 -134.75776865 -14.14929319 -97.3125 -20.1875 C-64.64704621 -24.13680691 -27.66529318 -19.08520225 0 0 Z " fill="#FEFEFE" transform="translate(269,120)"/>
<path d="M0 0 C2.66630757 2.04532583 5.24716448 4.17873813 7.80078125 6.36254883 C8.3201123 6.80356934 8.83944336 7.24458984 9.37451172 7.69897461 C37.06677972 31.46824269 51.98016869 64.9541914 55.265625 100.95239258 C56.06160291 113.08832982 55.80078125 125.19217113 55.80078125 137.36254883 C-24.38921875 137.36254883 -104.57921875 137.36254883 -187.19921875 137.36254883 C-184.09363195 168.41841684 -177.12559422 193.82823319 -155.19921875 216.36254883 C-154.61527344 216.99676758 -154.03132813 217.63098633 -153.4296875 218.28442383 C-136.20244695 236.52028502 -109.62921601 244.87809878 -85.19921875 246.36254883 C-56.64680168 246.68653035 -29.17318105 240.00062311 -6.19921875 222.36254883 C-4.87664062 221.3802832 -4.87664062 221.3802832 -3.52734375 220.37817383 C3.01650294 215.31316255 8.21715597 209.67776549 13.390625 203.28051758 C15.4230556 200.81986011 17.49924357 198.5679666 19.80078125 196.36254883 C22.90057391 198.86768738 25.9848659 201.39082016 29.05810547 203.9284668 C30.26742272 204.92363765 31.48024505 205.91455846 32.69580078 206.90209961 C34.63636687 208.48163015 36.56314539 210.07676702 38.48828125 211.67504883 C39.11234863 212.17810547 39.73641602 212.68116211 40.37939453 213.19946289 C42.125 214.66333008 42.125 214.66333008 44.80078125 217.36254883 C44.80078125 227.00701507 33.83144206 236.23331698 27.25830078 242.92797852 C2.76658288 267.03406468 -32.30014496 280.47765846 -66.546875 280.53051758 C-67.32123398 280.53384598 -68.09559296 280.53717438 -68.89341736 280.54060364 C-70.52456068 280.54563509 -72.15571416 280.54801314 -73.78686523 280.54785156 C-76.23113868 280.55002168 -78.67494769 280.56817274 -81.11914062 280.5871582 C-96.7008335 280.6440012 -111.16964767 278.46571394 -126.19921875 274.36254883 C-127.25367188 274.11118164 -128.308125 273.85981445 -129.39453125 273.60083008 C-148.6429521 268.55488855 -165.96653082 255.85207426 -180.19921875 242.36254883 C-181.03453125 241.58008789 -181.86984375 240.79762695 -182.73046875 239.99145508 C-204.15540387 219.3269729 -215.75282855 192.94867409 -222.19921875 164.36254883 C-222.38000977 163.60232422 -222.56080078 162.84209961 -222.74707031 162.05883789 C-228.00477821 139.30331087 -227.30658779 112.15686758 -221.73730469 89.55102539 C-221.24485973 87.54817758 -220.81633132 85.52989348 -220.39453125 83.51098633 C-217.65568239 71.53830419 -212.27601077 60.49232745 -207.19921875 49.36254883 C-206.53921875 49.36254883 -205.87921875 49.36254883 -205.19921875 49.36254883 C-204.9671875 48.51563477 -204.73515625 47.6687207 -204.49609375 46.79614258 C-203.01379398 42.87161999 -200.93929784 39.75518125 -198.44921875 36.42504883 C-197.97186279 35.78116211 -197.49450684 35.13727539 -197.00268555 34.47387695 C-189.27916197 24.28292791 -180.35164403 14.19336688 -170.19921875 6.36254883 C-169.21050781 5.59813477 -168.22179688 4.8337207 -167.203125 4.04614258 C-147.16879746 -11.03204896 -125.71483153 -18.40220472 -101.19921875 -22.63745117 C-100.25377197 -22.81252197 -99.3083252 -22.98759277 -98.33422852 -23.16796875 C-65.05009142 -28.15242445 -27.22073576 -20.01219291 0 0 Z " fill="#626FF6" transform="translate(1873.19921875,214.637451171875)"/>
<path d="M0 0 C13.22042789 11.3753099 25.24631347 23.84044127 34.875 38.40234375 C35.535 39.39234375 36.195 40.38234375 36.875 41.40234375 C37.21120361 40.95020508 37.54740723 40.49806641 37.89379883 40.03222656 C45.12053636 30.35077815 52.49269291 21.10904353 60.875 12.40234375 C61.56335938 11.65082031 62.25171875 10.89929688 62.9609375 10.125 C90.42240736 -18.96732344 132.77470297 -36.84616922 172.54345703 -38.72363281 C214.77355437 -39.87265216 253.51905289 -29.52492674 287.875 -4.53515625 C288.65270752 -3.96958008 289.43041504 -3.40400391 290.23168945 -2.82128906 C295.57765111 1.1765305 300.25990469 5.58778928 304.875 10.40234375 C305.7 11.22734375 306.525 12.05234375 307.375 12.90234375 C308.2 13.72734375 309.025 14.55234375 309.875 15.40234375 C310.679375 16.11970703 310.679375 16.11970703 311.5 16.8515625 C323.54554417 28.01878574 332.41792415 42.89658378 339.875 57.40234375 C340.41511719 58.44132812 340.95523438 59.4803125 341.51171875 60.55078125 C348.5590311 74.94135608 353.3648557 90.59653191 355.875 106.40234375 C356.04201416 107.33820313 356.20902832 108.2740625 356.38110352 109.23828125 C357.75797924 117.33654094 358.22577279 125.19421707 358.1875 133.40234375 C358.18258545 134.66546387 358.1776709 135.92858398 358.17260742 137.22998047 C357.57820753 185.32455189 336.87896722 228.75443902 302.875 262.40234375 C299.33423826 265.57681979 295.64187697 268.5020014 291.875 271.40234375 C290.81777793 272.23541744 289.76183731 273.07011936 288.70703125 273.90625 C285.10888887 276.75440737 281.49357405 279.58021075 277.875 282.40234375 C277.15828125 282.96147461 276.4415625 283.52060547 275.703125 284.09667969 C267.24518774 290.69168335 258.76834693 297.26090294 250.26171875 303.79296875 C243.10746227 309.2965732 235.99651142 314.8564926 228.875 320.40234375 C219.69511989 327.55114204 210.51045618 334.69229658 201.28125 341.77734375 C197.13258632 344.9686235 193.00467519 348.18655675 188.875 351.40234375 C183.71942648 355.417 178.55815772 359.42335398 173.375 363.40234375 C165.17801626 369.69663992 157.02896006 376.05247697 148.875 382.40234375 C139.69511989 389.55114204 130.51045618 396.69229658 121.28125 403.77734375 C117.13258632 406.9686235 113.00467519 410.18655675 108.875 413.40234375 C103.71942648 417.417 98.55815772 421.42335398 93.375 425.40234375 C85.17801626 431.69663992 77.02896006 438.05247697 68.875 444.40234375 C58.56414976 452.43188092 48.24573903 460.4502223 37.875 468.40234375 C35.03298141 467.07350591 32.64278831 465.5756327 30.1796875 463.63671875 C29.47287842 463.08338867 28.76606934 462.53005859 28.0378418 461.95996094 C27.282854 461.36344727 26.52786621 460.76693359 25.75 460.15234375 C24.12897095 458.88142789 22.50787529 457.61059698 20.88671875 456.33984375 C20.0570459 455.68757813 19.22737305 455.0353125 18.37255859 454.36328125 C14.44578985 451.28021121 10.50427101 448.21619405 6.5625 445.15234375 C5.8082373 444.56549805 5.05397461 443.97865234 4.27685547 443.37402344 C-0.01388015 440.03709724 -4.31382007 436.71281065 -8.625 433.40234375 C-17.6102752 426.50273469 -26.53942988 419.53083256 -35.47753906 412.5703125 C-43.87361519 406.03264255 -52.2779271 399.50716739 -60.71875 393.02734375 C-65.65354536 389.23134732 -70.56045131 385.39936336 -75.47265625 381.57421875 C-79.84644077 378.16991946 -84.22858707 374.77736781 -88.625 371.40234375 C-97.6102752 364.50273469 -106.53942988 357.53083256 -115.47753906 350.5703125 C-126.53198713 341.96141626 -126.53198713 341.96141626 -137.625 333.40234375 C-146.6102752 326.50273469 -155.53942988 319.53083256 -164.47753906 312.5703125 C-175.53198713 303.96141626 -175.53198713 303.96141626 -186.625 295.40234375 C-192.57011089 290.83667852 -198.49944136 286.25088596 -204.40454102 281.63354492 C-207.81826585 278.9645804 -211.2341974 276.30652061 -214.71875 273.73046875 C-235.92337313 257.90529823 -252.97163055 237.87985488 -265.125 214.40234375 C-265.45838379 213.76006836 -265.79176758 213.11779297 -266.13525391 212.45605469 C-285.12794899 175.39757222 -290.2101238 129.37511608 -278.20849609 89.26489258 C-277.24128219 86.28904663 -276.1814779 83.3474568 -275.125 80.40234375 C-274.67792217 78.73822072 -274.23942994 77.07174929 -273.8125 75.40234375 C-271.60011309 67.99457634 -267.73586874 61.20278557 -264.125 54.40234375 C-263.80901855 53.79841797 -263.49303711 53.19449219 -263.16748047 52.57226562 C-255.26533124 37.58037678 -244.84221638 24.56678213 -233.125 12.40234375 C-232.43535156 11.64953125 -231.74570313 10.89671875 -231.03515625 10.12109375 C-211.16079998 -10.93580579 -184.38344257 -24.09109615 -157.125 -32.59765625 C-155.69414062 -33.06171875 -155.69414062 -33.06171875 -154.234375 -33.53515625 C-102.7838867 -49.06737913 -41.06504745 -33.95862569 0 0 Z M-214.125 31.40234375 C-214.89199219 32.09457031 -215.65898437 32.78679687 -216.44921875 33.5 C-223.9378035 40.47769387 -229.45897874 48.94324381 -235.125 57.40234375 C-235.72441406 58.27761719 -236.32382813 59.15289062 -236.94140625 60.0546875 C-256.57336595 90.492249 -261.1362471 130.49608146 -254.125 165.40234375 C-248.32401116 190.99817603 -237.14119688 214.16460978 -219.125 233.40234375 C-218.60599121 233.96373047 -218.08698242 234.52511719 -217.55224609 235.10351562 C-209.1755268 244.08339875 -200.06206855 251.54352297 -190.20800781 258.83642578 C-186.92946836 261.30109433 -183.7478849 263.88164366 -180.5625 266.46484375 C-175.49625274 270.55621917 -170.35189387 274.51846246 -165.125 278.40234375 C-159.89804508 282.28627041 -154.7548343 286.24975711 -149.6875 290.33984375 C-143.75459199 295.12835278 -137.73650521 299.79052119 -131.66992188 304.40820312 C-124.20827723 310.09037696 -116.80963706 315.85214685 -109.41308594 321.61865234 C-105.54777659 324.63187792 -101.68048127 327.64254907 -97.8125 330.65234375 C-97.05718994 331.24007568 -96.30187988 331.82780762 -95.52368164 332.43334961 C-90.2074795 336.56726842 -84.87305827 340.67656164 -79.53125 344.77734375 C-74.59645464 348.57334018 -69.68954869 352.40532414 -64.77734375 356.23046875 C-60.40355923 359.63476804 -56.02141293 363.02731969 -51.625 366.40234375 C-42.6397248 373.30195281 -33.71057012 380.27385494 -24.77246094 387.234375 C-13.71801287 395.84327124 -13.71801287 395.84327124 -2.625 404.40234375 C10.27859263 414.31191237 23.09478649 424.33432989 35.875 434.40234375 C39.59164624 432.76238474 42.6407022 430.395593 45.8125 427.90234375 C46.98429503 426.9907826 48.15617219 426.07932704 49.328125 425.16796875 C49.92173828 424.70455078 50.51535156 424.24113281 51.12695312 423.76367188 C53.76115078 421.71223526 56.41262355 419.68346732 59.0625 417.65234375 C67.36263443 411.27348967 75.61586366 404.83411617 83.875 398.40234375 C93.05488011 391.25354546 102.23954382 384.11239092 111.46875 377.02734375 C115.61741368 373.836064 119.74532481 370.61813075 123.875 367.40234375 C129.03057352 363.3876875 134.19184228 359.38133352 139.375 355.40234375 C147.57198374 349.10804758 155.72103994 342.75221053 163.875 336.40234375 C173.05488011 329.25354546 182.23954382 322.11239092 191.46875 315.02734375 C195.61741368 311.836064 199.74532481 308.61813075 203.875 305.40234375 C209.03057352 301.3876875 214.19184228 297.38133352 219.375 293.40234375 C227.57198374 287.10804758 235.72103994 280.75221053 243.875 274.40234375 C246.21343252 272.58129792 248.55196143 270.76037688 250.89086914 268.93994141 C252.41641427 267.75252338 253.94164455 266.56470074 255.46655273 265.37646484 C258.76582492 262.80815179 262.06906833 260.24673583 265.40234375 257.72265625 C291.57173517 237.89865974 312.62305583 215.08104661 322.91015625 183.26953125 C323.51490384 181.47242709 324.17188047 179.69118521 324.90234375 177.94140625 C326.93534587 172.6343726 327.77930953 166.96282639 328.875 161.40234375 C329.08511719 160.43683594 329.29523437 159.47132813 329.51171875 158.4765625 C336.28695285 122.96664761 326.71968543 84.07957378 306.94921875 54.2512207 C303.19847026 48.73644831 299.22966424 43.45734575 294.875 38.40234375 C294.21886719 37.62503906 293.56273437 36.84773438 292.88671875 36.046875 C286.35356567 28.47349172 279.05020607 22.43206847 271.0625 16.46484375 C270.4037085 15.96742676 269.74491699 15.47000977 269.06616211 14.95751953 C265.36640935 12.11144468 265.36640935 12.11144468 260.875 11.40234375 C260.875 10.74234375 260.875 10.08234375 260.875 9.40234375 C223.75565917 -11.05080603 183.42849803 -17.84597512 142.0625 -6.09765625 C118.06950898 1.24520019 97.69098073 13.98117699 79.875 31.40234375 C79.15054687 32.06492188 78.42609375 32.7275 77.6796875 33.41015625 C57.70980586 52.08644232 46.78170099 79.52410107 36.875 104.40234375 C36.53355957 103.5930542 36.19211914 102.78376465 35.84033203 101.94995117 C24.1380506 74.31335722 12.754992 49.70654649 -9.125 28.40234375 C-9.79982422 27.65984375 -9.79982422 27.65984375 -10.48828125 26.90234375 C-14.40241163 22.70655138 -18.73985526 19.31650119 -23.375 15.96484375 C-23.98980225 15.51536377 -24.60460449 15.06588379 -25.23803711 14.6027832 C-28.82269643 11.99933009 -28.82269643 11.99933009 -33.125 11.40234375 C-33.125 10.74234375 -33.125 10.08234375 -33.125 9.40234375 C-93.30038795 -24.11117677 -164.0941694 -16.76754036 -214.125 31.40234375 Z " fill="#626FF6" transform="translate(302.125,110.59765625)"/>
<path d="M0 0 C13.53 0 27.06 0 41 0 C45.499747 8.99949399 45.499747 8.99949399 46.94091797 12.70117188 C47.27091797 13.54315628 47.60091797 14.38514069 47.94091797 15.25263977 C48.28783691 16.14895615 48.63475586 17.04527252 48.9921875 17.96875 C49.37020508 18.93608566 49.74822266 19.90342133 50.13769531 20.90007019 C51.38687161 24.09872866 52.630852 27.29938277 53.875 30.5 C54.76405458 32.77856994 55.65354936 35.05696817 56.54345703 37.33520508 C58.41569068 42.12872472 60.28639265 46.92283811 62.15625 51.71728516 C66.25630626 62.22402963 70.3833641 72.72015503 74.51028442 83.21636963 C76.80851199 89.06187154 79.10532739 94.90792831 81.40234375 100.75390625 C81.86100327 101.92109192 82.31966278 103.08827759 82.79222107 104.29083252 C86.11400337 112.74419048 89.43423385 121.19815703 92.75390625 129.65234375 C102.28769851 153.93072062 111.83336526 178.20425117 121.41827393 202.4624939 C124.76381189 210.93104482 128.10081921 219.40295622 131.4375 227.875 C131.72384308 228.60202118 132.01018616 229.32904236 132.3052063 230.07809448 C133.87032414 234.05198952 135.43525587 238.02595779 137 242 C143.89927962 228.33838128 149.10739329 213.57179751 154.125 199.125 C156.11592774 193.39393517 158.27641205 187.78659096 160.65625 182.203125 C165.13273693 171.53242941 169.14918918 160.69515781 172.94116211 149.76513672 C174.41915101 145.54018355 176.05197081 141.47123896 177.94140625 137.41796875 C180.29423033 132.043806 182.22325645 126.48406264 184.26074219 120.98388672 C186.12832019 115.97201788 188.07255021 110.98905813 190 106 C191.25243973 102.74522715 192.50381961 99.49005236 193.75390625 96.234375 C194.56931331 94.11789523 195.38944262 92.00322725 196.21484375 89.890625 C198.61894367 83.71523736 200.88701598 77.50852188 203.0625 71.25 C204.81663289 66.20859012 206.67767505 61.32571515 208.94140625 56.48828125 C210.44757448 52.94795225 211.67944024 49.32215835 212.9375 45.6875 C215.02508168 39.66092449 217.27944203 33.76025139 219.78125 27.890625 C223.64561342 18.72514765 226.85159855 9.44520435 230 0 C243.53 0 257.06 0 271 0 C269.53697442 4.38907675 268.00064522 8.6369448 266.296875 12.9296875 C266.02723434 13.61071533 265.75759369 14.29174316 265.4797821 14.9934082 C264.88692064 16.49047946 264.29335892 17.98727356 263.69918823 19.48382568 C262.01057569 23.73774161 260.32793037 27.9940189 258.64453125 32.25 C258.27719376 33.17835663 257.90985626 34.10671326 257.53138733 35.0632019 C252.8130441 46.99245103 248.12618754 58.93407193 243.4375 70.875 C242.49512979 73.27458177 241.55274687 75.67415855 240.61035156 78.07373047 C238.69437483 82.95242533 236.77854396 87.83117743 234.86279297 92.70996094 C230.69910008 103.31317597 226.53347558 113.91563211 222.36795044 124.51812744 C220.07855011 130.34538548 217.7892819 136.17269543 215.5 142 C214.58333396 144.33333358 213.6666673 146.66666691 212.75 149 C212.29625 150.155 211.8425 151.31 211.375 152.5 C185.25000003 218.99999992 185.25000003 218.99999992 183.87510681 222.49972534 C182.95808159 224.83397321 182.04105889 227.16822207 181.1240387 229.50247192 C178.83787855 235.32182092 176.55167519 241.14115294 174.26538086 246.96044922 C169.59391566 258.85085482 164.92324927 270.74157335 160.25390625 282.6328125 C155.24179209 295.39665532 150.22732418 308.15957139 145.21020508 320.92144775 C144.05984121 323.84777432 142.90978741 326.77422258 141.75976562 329.70068359 C138.32609564 338.43623573 134.88588532 347.16909082 131.42173767 355.89260864 C130.09211289 359.24124761 128.76635711 362.59126949 127.45166016 365.94580078 C120.29167561 384.20589858 113.34831856 401.30239293 100 416 C99.38898437 416.70382812 98.77796875 417.40765625 98.1484375 418.1328125 C86.75937242 430.49115971 69.56911233 438.99038416 52.80737305 440.23754883 C49.1186793 440.3778726 45.4413588 440.4300172 41.75 440.4375 C39.77845947 440.44330078 39.77845947 440.44330078 37.76708984 440.44921875 C26.32944959 440.36725656 15.89100845 438.36587458 5 435 C5.3803034 430.65737723 5.77121716 426.31587861 6.171875 421.97509766 C6.30661398 420.49912281 6.43847977 419.02288269 6.56738281 417.54638672 C6.75346274 415.4207814 6.94994764 413.29635298 7.1484375 411.171875 C7.26364746 409.8940918 7.37885742 408.61630859 7.49755859 407.29980469 C7.94263315 404.37675916 8.4777791 402.49490357 10 400 C10.53254395 400.14622803 11.06508789 400.29245605 11.61376953 400.44311523 C28.88698146 405.12847862 46.00900982 409.59501511 62.6640625 400.453125 C78.74243308 390.45119548 87.06366092 370.09078763 93.01171875 352.796875 C94.22383263 349.3665448 95.57467551 345.99736264 96.9375 342.625 C100.63739687 333.43725108 104.2333104 324.22729827 107.5 314.875 C109.34308011 309.6257212 111.4650383 304.65426006 113.984375 299.6953125 C116.80606982 292.20696855 115.93298109 287.32511391 112.828125 280.24609375 C112.47908615 279.40920517 112.1300473 278.57231659 111.77043152 277.71006775 C110.61338722 274.94531021 109.43146557 272.1918989 108.25 269.4375 C107.42636346 267.47891052 106.60487013 265.51941854 105.78540039 263.55908203 C104.50254886 260.49158156 103.21812402 257.42482473 101.92689514 254.36083984 C97.72295202 244.38510133 93.65945758 234.35498254 89.61938477 224.3119812 C88.03501002 220.37481323 86.4456157 216.43967975 84.85623169 212.50453186 C83.67504425 209.58001831 82.49447161 206.65525712 81.31396484 203.73046875 C77.63175698 194.60964085 73.94097634 185.49228219 70.25 176.375 C69.9002713 175.51103607 69.5505426 174.64707214 69.19021606 173.75692749 C61.80049582 155.50177266 54.40112832 137.250532 47 119 C44.54150436 112.93756581 42.08311786 106.87508738 39.625 100.8125 C39.31866638 100.05697845 39.01233276 99.30145691 38.69671631 98.52304077 C35.06352934 89.56194924 31.43256312 80.59996196 27.8046875 71.63671875 C27.45072403 70.76228119 27.09676056 69.88784363 26.73207092 68.98690796 C24.94489267 64.57146084 23.15857061 60.15567034 21.3737793 55.73925781 C18.15798564 47.78432921 14.93588093 39.83222213 11.68331909 31.89224243 C10.26844428 28.43799879 8.85707735 24.98232634 7.44580078 21.52661133 C6.77827528 19.89529539 6.10886767 18.26474822 5.4375 16.63500977 C4.51490552 14.39525357 3.5985966 12.15302223 2.68359375 9.91015625 C2.4095018 9.24975845 2.13540985 8.58936066 1.85301208 7.90895081 C0.71087183 5.09370909 0 3.07244212 0 0 Z " fill="#626FF6" transform="translate(2123,198)"/>
<path d="M0 0 C12.21 0 24.42 0 37 0 C37.01458252 5.49422607 37.02916504 10.98845215 37.04418945 16.64916992 C37.09465956 34.85782198 37.16112912 53.06639014 37.23571491 71.27495861 C37.28052343 82.30837735 37.31997184 93.34176489 37.34643555 104.37524414 C37.36953741 114.00123757 37.40306938 123.62713099 37.44870156 133.2530449 C37.47247077 138.34151894 37.49130559 143.42989495 37.49761391 148.51842308 C37.50373952 153.32588717 37.52400232 158.13310096 37.55427551 162.94047165 C37.56293778 164.68770789 37.56680348 166.43497702 37.56500816 168.18223381 C37.54620864 194.96504267 41.13531341 224.44747873 59.359375 245.4609375 C72.12126021 257.73198097 88.85217093 262.95386228 106.375 263.1875 C108.25047553 263.14142618 110.12556769 263.07768369 112 263 C113.12921875 262.97035156 114.2584375 262.94070313 115.421875 262.91015625 C135.80206455 262.02873455 155.14415472 256.14754873 171 243 C171.85078125 242.31164062 172.7015625 241.62328125 173.578125 240.9140625 C194.89095496 222.80469471 204.27629299 195.94999459 208 169 C208.17196396 167.75795303 208.34392792 166.51590607 208.52110291 165.23622131 C209.2792245 158.27746816 209.1782375 151.28185586 209.20532227 144.29077148 C209.21491608 142.71310681 209.22492701 141.13544463 209.23532104 139.55778503 C209.26221339 135.29813929 209.28330716 131.03848264 209.30332303 126.77879977 C209.32527996 122.31850145 209.35262089 117.85823612 209.37937927 113.39796448 C209.42917551 104.9621989 209.4741625 96.52641488 209.51740164 88.09061342 C209.56688612 78.48234323 209.62176247 68.87410617 209.67708123 59.26586807 C209.7907005 39.51060817 209.89687111 19.75531763 210 0 C222.54 0 235.08 0 248 0 C248.00808685 2.74537079 248.01617371 5.49074158 248.02450562 8.31930542 C248.10025271 33.74100311 248.18533138 59.16265685 248.28005161 84.58429115 C248.29256424 87.94470296 248.30499798 91.30511506 248.31738281 94.66552734 C248.31984881 95.33427199 248.3223148 96.00301664 248.32485552 96.69202627 C248.36170794 106.73331268 248.39326236 116.77460428 248.421875 126.81591797 C248.45526116 138.52932964 248.4953315 150.2426981 248.54279006 161.95606148 C248.56760297 168.13364717 248.58950504 174.31120593 248.60334396 180.48882675 C248.66646329 207.67432343 249.07107757 234.79555705 250.30965233 261.9555645 C250.3545548 262.94686827 250.39945728 263.93817205 250.44572043 264.95951533 C250.52934419 266.77809086 250.61569431 268.59654456 250.70566583 270.41481709 C251.01286172 276.96663824 251 283.41795126 251 290 C238.46 290 225.92 290 213 290 C212.01 264.755 212.01 264.755 211 239 C210.01 239 209.02 239 208 239 C207.73316406 239.88171875 207.46632813 240.7634375 207.19140625 241.671875 C203.77018459 251.22886141 196.90705387 258.76878837 190 266 C189.47148438 266.60328125 188.94296875 267.2065625 188.3984375 267.828125 C173.36189489 284.32976663 147.76246891 294.41135929 126 297 C121.22064275 297.21743923 116.45862621 297.24735314 111.67529297 297.20581055 C109.50346071 297.18752913 107.33205767 297.18530191 105.16015625 297.18554688 C93.2799763 297.15835956 82.28937578 296.42415566 70.8125 293.1875 C69.87986328 292.93935547 68.94722656 292.69121094 67.98632812 292.43554688 C62.24316505 290.84941681 57.25991388 288.7908553 52 286 C51.01 285.67 50.02 285.34 49 285 C49 284.34 49 283.68 49 283 C48.28585937 282.74605469 47.57171875 282.49210937 46.8359375 282.23046875 C28.44626247 274.25147752 16.25153692 254.94230759 9 237 C-1.17058862 209.36105856 -0.42468591 180.68854317 -0.30418181 151.69562459 C-0.2852086 146.34791176 -0.28364854 141.00019186 -0.28010559 135.65245056 C-0.27084496 125.56315978 -0.24631369 115.47396852 -0.21605712 105.38472122 C-0.18232492 93.88260699 -0.16598017 82.38048758 -0.15097082 70.87833607 C-0.11975758 47.25215645 -0.06482197 23.62611296 0 0 Z " fill="#626FF6" transform="translate(1104,198)"/>
<path d="M0 0 C0.84175781 0.7321875 1.68351562 1.464375 2.55078125 2.21875 C7.89656659 6.95613792 13.0129005 11.88752649 18 17 C16.8362632 20.49121041 15.94674297 21.04280542 13.02734375 23.14453125 C12.20943359 23.73943359 11.39152344 24.33433594 10.54882812 24.94726562 C9.68708984 25.56279297 8.82535156 26.17832031 7.9375 26.8125 C6.2589035 28.02705207 4.58051611 29.2418932 2.90234375 30.45703125 C2.08491699 31.04564941 1.26749023 31.63426758 0.42529297 32.24072266 C-3.08183608 34.78475043 -6.5450366 37.38574235 -10 40 C-13.13274816 38.51132905 -15.08249083 37.05956454 -17.4375 34.5 C-25.64075822 26.09815267 -36.728912 16.75702933 -48 13 C-48 12.34 -48 11.68 -48 11 C-71.45440778 2.91227318 -95.61703373 -0.71230771 -120 6 C-120.70882324 6.19335938 -121.41764648 6.38671875 -122.14794922 6.5859375 C-137.94911696 11.02135301 -151.59376486 18.21398214 -164 29 C-164.6084375 29.47695312 -165.216875 29.95390625 -165.84375 30.4453125 C-187.4308333 47.61685603 -199.03012878 76.98658316 -202.3125 103.625 C-205.73902605 136.38546973 -199.19784129 170.87328677 -178.1484375 196.88085938 C-158.71507924 220.2497441 -132.88499811 234.43788047 -102.53808594 237.48461914 C-74.5541794 239.97014996 -48.77849863 233.01091026 -27 215 C-21.56895042 210.1283653 -16.22733659 204.96634127 -12 199 C-7.80181765 200.7164982 -4.7332288 203.66504311 -1.375 206.625 C3.71630189 211.07270466 8.88669973 215.32848131 14.3046875 219.37890625 C14.86414062 219.91386719 15.42359375 220.44882812 16 221 C16 227.26701349 8.68824144 232.3065237 4.48046875 236.52734375 C-20.30053099 260.0451441 -53.40023727 272.18895061 -87.28540039 272.18530273 C-89.53226201 272.18747082 -91.77861676 272.20561282 -94.02539062 272.22460938 C-120.87757563 272.33101146 -145.33406196 265.38619874 -169 253 C-169 252.34 -169 251.68 -169 251 C-169.68320312 250.76667969 -170.36640625 250.53335937 -171.0703125 250.29296875 C-174.65523396 248.71082341 -177.7159939 246.59823646 -180.875 244.3125 C-181.49560303 243.86624268 -182.11620605 243.41998535 -182.75561523 242.96020508 C-187.26349397 239.66327445 -191.24493988 236.14129487 -195 232 C-195.804375 231.195625 -196.60875 230.39125 -197.4375 229.5625 C-198.283125 228.716875 -199.12875 227.87125 -200 227 C-200.84111328 226.24589844 -200.84111328 226.24589844 -201.69921875 225.4765625 C-208.74615953 218.92991164 -213.76649562 210.9988151 -219 203 C-219.59039063 202.12214844 -220.18078125 201.24429688 -220.7890625 200.33984375 C-241.05962417 168.74161526 -246.18623339 123.86306871 -238.875 87.5625 C-235.66284561 72.99888935 -230.75060744 59.77105016 -223.83203125 46.5859375 C-222.02638113 43.12992127 -220.49487979 39.60067021 -219 36 C-218.34 36 -217.68 36 -217 36 C-216.74992188 35.278125 -216.49984375 34.55625 -216.2421875 33.8125 C-213.89665974 28.50187111 -209.78407595 24.34737501 -206 20 C-205.53207031 19.46213867 -205.06414063 18.92427734 -204.58203125 18.37011719 C-197.94449296 10.81168719 -191.06684139 4.06511403 -183 -2 C-182.22527344 -2.59039062 -181.45054687 -3.18078125 -180.65234375 -3.7890625 C-128.53080362 -41.9013072 -49.62688481 -43.22609732 0 0 Z " fill="#626FF6" transform="translate(1030,223)"/>
<path d="M0 0 C12.21 0 24.42 0 37 0 C37 156.42 37 312.84 37 474 C24.79 474 12.58 474 0 474 C0 317.58 0 161.16 0 0 Z " fill="#626FF6" transform="translate(2019,14)"/>
<path d="M0 0 C-0.62442624 12.423929 -2.30822183 24.68487349 -4 37 C-5.05924683 36.75987183 -5.05924683 36.75987183 -6.13989258 36.51489258 C-28.83861769 32.42854079 -53.50540446 36.89706023 -73.125 48.9140625 C-90.49548127 61.02514805 -101.84179759 78.50276744 -107.875 98.625 C-108.16141357 99.57161499 -108.16141357 99.57161499 -108.45361328 100.53735352 C-111.92158932 113.02426814 -112.30256081 125.61972736 -112.31884766 138.47021484 C-112.32816904 140.1766964 -112.33834091 141.88317349 -112.34928894 143.58964539 C-112.37635421 148.1775036 -112.39166787 152.76533152 -112.40471697 157.35324812 C-112.42045139 162.16453962 -112.44720817 166.97577018 -112.4727478 171.78701782 C-112.51935438 180.87780727 -112.55618564 189.96860842 -112.58942068 199.05945551 C-112.62777085 209.41754119 -112.67714682 219.77556537 -112.72740483 230.13359904 C-112.83045489 251.42235942 -112.91834703 272.71114606 -113 294 C-125.54 294 -138.08 294 -151 294 C-151.00808685 291.16027084 -151.01617371 288.32054169 -151.02450562 285.39476013 C-151.10018348 259.12555132 -151.1852437 232.85638365 -151.28005161 206.58723697 C-151.29256487 203.11780992 -151.30499851 199.64838259 -151.31738281 196.17895508 C-151.31984881 195.4884892 -151.3223148 194.79802332 -151.32485552 194.08663423 C-151.36417362 183.02507213 -151.39709811 171.96350032 -151.42749982 160.90191054 C-151.4590323 149.48287906 -151.49793939 138.06389103 -151.54279006 126.64490372 C-151.56764886 120.26005658 -151.58953999 113.87523594 -151.60334396 107.49035454 C-151.66981009 77.8345562 -152.15138279 48.26207912 -153.70566583 18.64306605 C-153.74437854 17.88108955 -153.78309124 17.11911306 -153.82297707 16.33404636 C-153.85725795 15.68575699 -153.89153884 15.03746762 -153.92685854 14.36953312 C-154.0335041 10.91458164 -154 7.45659702 -154 4 C-141.46 4 -128.92 4 -116 4 C-115.86722656 7.21363281 -115.73445313 10.42726562 -115.59765625 13.73828125 C-115.46629205 16.8459928 -115.3334385 19.95363734 -115.20043945 23.0612793 C-115.10871048 25.22332306 -115.0185333 27.38543324 -114.92993164 29.54760742 C-114.80240956 32.65301932 -114.66933351 35.75815068 -114.53515625 38.86328125 C-114.49656998 39.83211746 -114.4579837 40.80095367 -114.41822815 41.79914856 C-114.35827919 43.15020943 -114.35827919 43.15020943 -114.29711914 44.52856445 C-114.26380997 45.32132278 -114.23050079 46.11408112 -114.19618225 46.93086243 C-114.05979419 49.19606656 -114.05979419 49.19606656 -113 52 C-112.34 52 -111.68 52 -111 52 C-110.75636719 51.30519531 -110.51273438 50.61039063 -110.26171875 49.89453125 C-100.98117825 28.60387952 -80.19744378 12.44004873 -59.4375 3.28125 C-40.00419084 -3.96207432 -20.04324271 -4.96646722 0 0 Z " fill="#6370F6" transform="translate(1606,194)"/>
<path d="M0 0 C1.23435791 0.00418945 2.46871582 0.00837891 3.74047852 0.01269531 C12.29707104 0.11903757 19.91440153 0.79458314 28.125 3.3125 C29.15367187 3.56773437 30.18234375 3.82296875 31.2421875 4.0859375 C45.450533 7.87251368 58.38815471 15.3331622 69.125 25.3125 C70.50945312 26.57707031 70.50945312 26.57707031 71.921875 27.8671875 C85.65213904 40.95266014 94.31802459 56.23744388 98.5625 74.625 C98.72661377 75.32906982 98.89072754 76.03313965 99.05981445 76.75854492 C100.32681936 82.87093962 100.125 87.77482122 100.125 94.3125 C32.475 94.3125 -35.175 94.3125 -104.875 94.3125 C-104.875 70.63858816 -92.4362252 49.35686769 -76.875 32.3125 C-76.28074219 31.64734375 -75.68648437 30.9821875 -75.07421875 30.296875 C-55.51660626 9.52601112 -28.06800729 -0.13036162 0 0 Z " fill="#FDFDFE" transform="translate(1790.875,224.6875)"/>
<path d="M0 0 C2.1176764 2.1176764 2.64166228 3.34025739 3.63793945 6.11181641 C3.95115143 6.97400284 4.2643634 7.83618927 4.58706665 8.72450256 C4.92571747 9.67393234 5.26436829 10.62336212 5.61328125 11.6015625 C5.97561859 12.6020311 6.33795593 13.60249969 6.71127319 14.63328552 C7.50118927 16.81532421 8.28867986 18.99824209 9.07406616 21.18191528 C11.18614307 27.05389609 13.31501346 32.91976581 15.4453125 38.78515625 C16.11396584 40.62722908 16.11396584 40.62722908 16.79612732 42.5065155 C20.11365656 51.63011679 23.50429597 60.72499172 26.9296875 69.80859375 C27.17215147 70.45202728 27.41461544 71.09546082 27.6644268 71.75839233 C29.80654669 77.44236782 31.95098476 83.12545382 34.10806274 88.80377197 C35.43406627 92.29608588 36.7544826 95.79047021 38.07421875 99.28515625 C38.67283218 100.85190346 38.67283218 100.85190346 39.28353882 102.45030212 C39.64331818 103.40522049 40.00309753 104.36013885 40.3737793 105.34399414 C40.68953415 106.17532364 41.005289 107.00665314 41.33061218 107.86317444 C42 110 42 110 42 113 C64.44 113 86.88 113 110 113 C110 120.92 110 128.84 110 137 C81.95 137 53.9 137 25 137 C21.555625 127.698125 18.11125 118.39625 14.5625 108.8125 C12.93163452 104.41707886 12.93163452 104.41707886 11.26782227 99.93286133 C10.40872193 97.60769361 9.54989776 95.28242383 8.69140625 92.95703125 C8.24309448 91.75187866 7.79478271 90.54672607 7.33288574 89.30505371 C6.90664917 88.1484021 6.4804126 86.99175049 6.04125977 85.80004883 C5.67041763 84.79855301 5.2995755 83.79705719 4.91749573 82.76521301 C4.06051724 80.18239112 3.46658132 77.67792481 3 75 C2.34 75 1.68 75 1 75 C0.83360519 75.63957138 0.66721039 76.27914276 0.49577332 76.93809509 C-1.5119524 84.49188494 -3.86281065 91.89961122 -6.32421875 99.31640625 C-6.74741358 100.59908401 -7.17030274 101.88186266 -7.59291077 103.16473389 C-8.48978922 105.88605116 -9.38813644 108.6068767 -10.28771973 111.32730103 C-12.66678963 118.52301225 -15.03521841 125.7222271 -17.40234375 132.921875 C-17.6405698 133.64624063 -17.87879585 134.37060627 -18.12424088 135.11692238 C-23.07987208 150.19075229 -27.9260076 165.29848757 -32.73864746 180.4185791 C-36.89832802 193.48521422 -41.1018902 206.53187692 -45.52832031 219.51098633 C-45.84768555 220.45224365 -46.16705078 221.39350098 -46.49609375 222.36328125 C-46.76607178 223.15001221 -47.0360498 223.93674316 -47.31420898 224.74731445 C-48.04433086 227.14561795 -48.54729203 229.53555908 -49 232 C-51.87330874 230.56334563 -52.13423087 228.76254659 -53.37109375 225.81640625 C-53.85328369 224.68243408 -54.33547363 223.54846191 -54.83227539 222.38012695 C-55.09219269 221.76158844 -55.35210999 221.14304993 -55.61990356 220.50576782 C-57.05025921 217.10609045 -58.50516662 213.71698167 -59.9609375 210.328125 C-60.27686356 209.59217606 -60.59278961 208.85622711 -60.91828918 208.09797668 C-65.00626896 198.61269776 -69.28995573 189.21566964 -73.5625 179.8125 C-75.19311772 176.22023781 -76.82319498 172.62773052 -78.453125 169.03515625 C-78.84547333 168.17058304 -79.23782166 167.30600983 -79.64205933 166.41523743 C-86.92713612 150.35169387 -94.14965515 134.25454633 -101 118 C-104.21967489 120.8889156 -104.21967489 120.8889156 -106 131 C-135.04 131 -164.08 131 -194 131 C-194 123.08 -194 115.16 -194 107 C-159.35 106.505 -159.35 106.505 -124 106 C-122.68 101.71 -121.36 97.42 -120 93 C-117.9375 87.8125 -117.9375 87.8125 -116.93359375 85.39453125 C-115.66965613 82.15271635 -114.74197759 78.84166119 -113.78125 75.5 C-112.71541839 72.08933886 -111.34650689 68.83135304 -109.97265625 65.53515625 C-108.64364715 62.07119278 -107.71175427 58.52940676 -106.80859375 54.93359375 C-106.54175781 54.29550781 -106.27492188 53.65742188 -106 53 C-105.01 52.67 -104.02 52.34 -103 52 C-102.37508667 53.4080188 -102.37508667 53.4080188 -101.73754883 54.84448242 C-94.59852114 70.9276936 -87.45655773 87.00940932 -80.25 103.0625 C-76.04486642 112.42971708 -71.85600362 121.80392107 -67.6875 131.1875 C-66.94681274 132.85413696 -66.94681274 132.85413696 -66.19116211 134.55444336 C-63.95690805 139.58424427 -61.7269747 144.61586484 -59.5078125 149.65234375 C-59.13309814 150.50094971 -58.75838379 151.34955566 -58.37231445 152.22387695 C-57.6865621 153.77752229 -57.00267955 155.33199485 -56.32104492 156.88745117 C-55.03007087 160.17792493 -55.03007087 160.17792493 -53 163 C-49.4792203 152.56821139 -49.4792203 152.56821139 -46.1875 142.0625 C-44.25377929 135.68516803 -42.1259939 129.37800945 -40 123.0625 C-37.88713126 116.78170859 -35.7958961 110.52338837 -34.0625 104.125 C-31.88285809 96.1785925 -29.0900969 88.44125825 -26.34790039 80.67431641 C-24.08767912 74.24991233 -21.99044255 67.8004296 -20.01367188 61.28344727 C-17.92418236 54.51525255 -15.61844436 47.81716091 -13.35546875 41.10546875 C-9.51085975 29.65091204 -5.98235955 18.11479611 -2.66992188 6.49609375 C-1.10892254 1.10892254 -1.10892254 1.10892254 0 0 Z " fill="#6370F6" transform="translate(381,208)"/>
</svg>
